<?xml version="1.0" standalone="no"?>
<!DOCTYPE svg PUBLIC "-//W3C//DTD SVG 20010904//EN"
 "http://www.w3.org/TR/2001/REC-SVG-20010904/DTD/svg10.dtd">
<svg version="1.0" xmlns="http://www.w3.org/2000/svg"
 width="1509.000000pt" height="450.000000pt" viewBox="0 0 1509.000000 450.000000"
 preserveAspectRatio="xMidYMid meet">

<g transform="translate(0.000000,450.000000) scale(0.100000,-0.100000)"
fill="#000000" stroke="none">
<path d="M3575 4460 c3 -5 8 -10 11 -10 2 0 4 5 4 10 0 6 -5 10 -11 10 -5 0
-7 -4 -4 -10z"/>
<path d="M3568 4403 c7 -3 16 -2 19 1 4 3 -2 6 -13 5 -11 0 -14 -3 -6 -6z"/>
<path d="M3570 4380 c0 -5 5 -10 10 -10 6 0 10 5 10 10 0 6 -4 10 -10 10 -5 0
-10 -4 -10 -10z"/>
<path d="M3568 4323 c7 -3 16 -2 19 1 4 3 -2 6 -13 5 -11 0 -14 -3 -6 -6z"/>
<path d="M3568 4293 c7 -3 16 -2 19 1 4 3 -2 6 -13 5 -11 0 -14 -3 -6 -6z"/>
<path d="M3568 4193 c7 -3 16 -2 19 1 4 3 -2 6 -13 5 -11 0 -14 -3 -6 -6z"/>
<path d="M3568 4163 c7 -3 16 -2 19 1 4 3 -2 6 -13 5 -11 0 -14 -3 -6 -6z"/>
<path d="M3568 4083 c7 -3 16 -2 19 1 4 3 -2 6 -13 5 -11 0 -14 -3 -6 -6z"/>
<path d="M3568 4023 c7 -3 16 -2 19 1 4 3 -2 6 -13 5 -11 0 -14 -3 -6 -6z"/>
<path d="M3575 3970 c3 -5 8 -10 11 -10 2 0 4 5 4 10 0 6 -5 10 -11 10 -5 0
-7 -4 -4 -10z"/>
<path d="M3568 3893 c7 -3 16 -2 19 1 4 3 -2 6 -13 5 -11 0 -14 -3 -6 -6z"/>
<path d="M3568 3863 c7 -3 16 -2 19 1 4 3 -2 6 -13 5 -11 0 -14 -3 -6 -6z"/>
<path d="M3568 3783 c7 -3 16 -2 19 1 4 3 -2 6 -13 5 -11 0 -14 -3 -6 -6z"/>
<path d="M3568 3703 c7 -3 16 -2 19 1 4 3 -2 6 -13 5 -11 0 -14 -3 -6 -6z"/>
<path d="M3568 3673 c7 -3 16 -2 19 1 4 3 -2 6 -13 5 -11 0 -14 -3 -6 -6z"/>
<path d="M3575 3570 c-3 -5 -1 -10 4 -10 6 0 11 5 11 10 0 6 -2 10 -4 10 -3 0
-8 -4 -11 -10z"/>
<path d="M3568 3543 c7 -3 16 -2 19 1 4 3 -2 6 -13 5 -11 0 -14 -3 -6 -6z"/>
<path d="M3570 3490 c0 -5 5 -10 10 -10 6 0 10 5 10 10 0 6 -4 10 -10 10 -5 0
-10 -4 -10 -10z"/>
<path d="M3568 3463 c7 -3 16 -2 19 1 4 3 -2 6 -13 5 -11 0 -14 -3 -6 -6z"/>
<path d="M3575 3410 c3 -5 8 -10 11 -10 2 0 4 5 4 10 0 6 -5 10 -11 10 -5 0
-7 -4 -4 -10z"/>
<path d="M3570 3380 c0 -5 5 -10 10 -10 6 0 10 5 10 10 0 6 -4 10 -10 10 -5 0
-10 -4 -10 -10z"/>
<path d="M3575 3300 c3 -5 8 -10 11 -10 2 0 4 5 4 10 0 6 -5 10 -11 10 -5 0
-7 -4 -4 -10z"/>
<path d="M3568 3273 c7 -3 16 -2 19 1 4 3 -2 6 -13 5 -11 0 -14 -3 -6 -6z"/>
<path d="M3568 3163 c7 -3 16 -2 19 1 4 3 -2 6 -13 5 -11 0 -14 -3 -6 -6z"/>
<path d="M3570 3060 c0 -5 5 -10 10 -10 6 0 10 5 10 10 0 6 -4 10 -10 10 -5 0
-10 -4 -10 -10z"/>
<path d="M3568 3003 c7 -3 16 -2 19 1 4 3 -2 6 -13 5 -11 0 -14 -3 -6 -6z"/>
<path d="M3568 2953 c7 -3 16 -2 19 1 4 3 -2 6 -13 5 -11 0 -14 -3 -6 -6z"/>
<path d="M3568 2873 c7 -3 16 -2 19 1 4 3 -2 6 -13 5 -11 0 -14 -3 -6 -6z"/>
<path d="M1809 2855 c-53 -29 -61 -105 -17 -152 23 -25 84 -31 119 -13 33 18
65 100 39 100 -5 0 -10 -10 -10 -22 -1 -27 -17 -50 -47 -66 -34 -18 -62 -14
-88 13 -34 33 -34 83 0 115 20 19 31 22 72 17 43 -4 46 -4 28 9 -24 18 -62 17
-96 -1z"/>
<path d="M1931 2830 c-17 -17 -45 -33 -61 -37 -17 -3 -30 -11 -30 -19 0 -25
21 -25 47 0 14 15 38 29 52 32 61 14 61 14 48 35 -16 25 -18 24 -56 -11z"/>
<path d="M3568 2843 c7 -3 16 -2 19 1 4 3 -2 6 -13 5 -11 0 -14 -3 -6 -6z"/>
<path d="M1817 2812 c-30 -33 -21 -69 22 -92 20 -10 27 -9 50 8 14 10 27 28
29 38 2 15 -2 13 -18 -8 -12 -16 -30 -28 -40 -28 -45 0 -55 72 -10 78 39 6 49
22 14 22 -17 0 -38 -8 -47 -18z"/>
<path d="M3575 2820 c3 -5 8 -10 11 -10 2 0 4 5 4 10 0 6 -5 10 -11 10 -5 0
-7 -4 -4 -10z"/>
<path d="M2400 2742 c0 -5 7 -9 15 -9 8 0 12 4 9 9 -3 4 -9 8 -15 8 -5 0 -9
-4 -9 -8z"/>
<path d="M2440 2736 c0 -2 8 -10 18 -17 15 -13 16 -12 3 4 -13 16 -21 21 -21
13z"/>
<path d="M3568 2733 c7 -3 16 -2 19 1 4 3 -2 6 -13 5 -11 0 -14 -3 -6 -6z"/>
<path d="M2403 2665 c0 -33 2 -45 4 -27 2 18 2 45 0 60 -2 15 -4 0 -4 -33z"/>
<path d="M3568 2633 c7 -3 16 -2 19 1 4 3 -2 6 -13 5 -11 0 -14 -3 -6 -6z"/>
<path d="M2340 2626 c0 -2 8 -10 18 -17 15 -13 16 -12 3 4 -13 16 -21 21 -21
13z"/>
<path d="M2405 2600 c-16 -7 -17 -9 -3 -9 9 -1 20 4 23 9 7 11 7 11 -20 0z"/>
<path d="M3568 2553 c7 -3 16 -2 19 1 4 3 -2 6 -13 5 -11 0 -14 -3 -6 -6z"/>
<path d="M2065 2537 c-4 -10 -5 -21 -1 -24 10 -10 18 4 13 24 -4 17 -4 17 -12
0z"/>
<path d="M3568 2523 c7 -3 16 -2 19 1 4 3 -2 6 -13 5 -11 0 -14 -3 -6 -6z"/>
<path d="M1990 2512 c0 -12 19 -26 26 -19 2 2 -2 10 -11 17 -9 8 -15 8 -15 2z"/>
<path d="M2130 2505 c-8 -9 -8 -15 -2 -15 12 0 26 19 19 26 -2 2 -10 -2 -17
-11z"/>
<path d="M3575 2500 c-3 -5 -1 -10 4 -10 6 0 11 5 11 10 0 6 -2 10 -4 10 -3 0
-8 -4 -11 -10z"/>
<path d="M2050 2477 c-31 -15 -37 -48 -14 -81 23 -36 58 -34 74 3 15 37 11 60
-15 77 -16 11 -25 11 -45 1z m9 -28 c-11 -11 -23 -18 -26 -15 -9 8 17 36 33
36 10 0 7 -7 -7 -21z"/>
<path d="M3568 2443 c7 -3 16 -2 19 1 4 3 -2 6 -13 5 -11 0 -14 -3 -6 -6z"/>
<path d="M1968 2433 c6 -2 18 -2 25 0 6 3 1 5 -13 5 -14 0 -19 -2 -12 -5z"/>
<path d="M2158 2433 c6 -2 18 -2 25 0 6 3 1 5 -13 5 -14 0 -19 -2 -12 -5z"/>
<path d="M3568 2413 c7 -3 16 -2 19 1 4 3 -2 6 -13 5 -11 0 -14 -3 -6 -6z"/>
<path d="M1995 2369 c-11 -17 1 -21 15 -4 8 9 8 15 2 15 -6 0 -14 -5 -17 -11z"/>
<path d="M2130 2365 c7 -9 15 -13 17 -11 7 7 -7 26 -19 26 -6 0 -6 -6 2 -15z"/>
<path d="M2050 2341 c0 -15 16 -22 34 -15 25 9 19 24 -9 24 -14 0 -25 -4 -25
-9z"/>
<path d="M3568 2333 c7 -3 16 -2 19 1 4 3 -2 6 -13 5 -11 0 -14 -3 -6 -6z"/>
<path d="M3570 2310 c0 -5 5 -10 10 -10 6 0 10 5 10 10 0 6 -4 10 -10 10 -5 0
-10 -4 -10 -10z"/>
<path d="M2130 2215 l0 -65 198 0 c108 0 203 4 211 9 14 9 18 92 5 112 -3 5
-97 9 -210 9 l-204 0 0 -65z"/>
<path d="M3568 2203 c7 -3 16 -2 19 1 4 3 -2 6 -13 5 -11 0 -14 -3 -6 -6z"/>
<path d="M3575 2150 c3 -5 8 -10 11 -10 2 0 4 5 4 10 0 6 -5 10 -11 10 -5 0
-7 -4 -4 -10z"/>
<path d="M2130 1830 l0 -300 38 0 37 0 -3 53 -4 54 156 189 156 189 0 58 0 57
-190 0 -190 0 0 -300z"/>
<path d="M3568 2123 c7 -3 16 -2 19 1 4 3 -2 6 -13 5 -11 0 -14 -3 -6 -6z"/>
<path d="M3568 2093 c7 -3 16 -2 19 1 4 3 -2 6 -13 5 -11 0 -14 -3 -6 -6z"/>
<path d="M3575 2070 c3 -5 8 -10 11 -10 2 0 4 5 4 10 0 6 -5 10 -11 10 -5 0
-7 -4 -4 -10z"/>
<path d="M3568 2013 c7 -3 16 -2 19 1 4 3 -2 6 -13 5 -11 0 -14 -3 -6 -6z"/>
<path d="M3568 1913 c7 -3 16 -2 19 1 4 3 -2 6 -13 5 -11 0 -14 -3 -6 -6z"/>
<path d="M3568 1883 c7 -3 16 -2 19 1 4 3 -2 6 -13 5 -11 0 -14 -3 -6 -6z"/>
<path d="M3568 1803 c7 -3 16 -2 19 1 4 3 -2 6 -13 5 -11 0 -14 -3 -6 -6z"/>
<path d="M3568 1773 c7 -3 16 -2 19 1 4 3 -2 6 -13 5 -11 0 -14 -3 -6 -6z"/>
<path d="M3568 1693 c7 -3 16 -2 19 1 4 3 -2 6 -13 5 -11 0 -14 -3 -6 -6z"/>
<path d="M3568 1593 c7 -3 16 -2 19 1 4 3 -2 6 -13 5 -11 0 -14 -3 -6 -6z"/>
<path d="M3568 1563 c7 -3 16 -2 19 1 4 3 -2 6 -13 5 -11 0 -14 -3 -6 -6z"/>
<path d="M3568 1483 c7 -3 16 -2 19 1 4 3 -2 6 -13 5 -11 0 -14 -3 -6 -6z"/>
<path d="M2781 1435 c1 -34 2 -36 8 -15 l7 25 8 -24 c6 -18 10 -21 17 -10 5 8
8 23 8 34 0 19 -1 19 -8 1 -7 -18 -8 -18 -24 5 l-17 23 1 -39z"/>
<path d="M2930 1469 c0 -4 7 -22 15 -40 11 -27 14 -30 15 -12 0 12 5 25 10 28
6 3 10 11 10 18 0 6 -6 2 -14 -8 -13 -18 -13 -18 -24 1 -6 10 -12 16 -12 13z"/>
<path d="M2994 1458 c-4 -6 0 -16 9 -23 21 -15 22 -29 1 -21 -8 3 -12 2 -9 -4
10 -16 35 -12 35 5 0 9 -7 18 -15 21 -8 4 -15 11 -15 16 0 6 7 7 16 4 8 -3 12
-2 9 4 -8 13 -22 13 -31 -2z"/>
<path d="M3074 1458 c-4 -6 0 -16 9 -23 22 -16 22 -29 0 -20 -15 5 -16 4 -5
-6 10 -11 14 -11 25 0 10 10 9 15 -5 25 -22 16 -23 30 -2 22 8 -3 12 -2 9 4
-8 13 -22 13 -31 -2z"/>
<path d="M2730 1451 c0 -5 -3 -17 -7 -27 -4 -12 -3 -15 6 -10 6 4 18 3 26 -4
11 -9 12 -7 8 9 -3 12 -9 18 -14 15 -5 -3 -6 2 -3 10 3 9 1 16 -5 16 -6 0 -11
-4 -11 -9z"/>
<path d="M2850 1451 c0 -5 6 -12 13 -14 7 -3 5 -6 -5 -6 -10 -1 -18 -6 -18
-12 0 -5 5 -7 10 -4 6 4 17 1 25 -5 13 -11 13 -8 4 19 -10 29 -29 43 -29 22z"/>
<path d="M2901 1433 c-1 -25 3 -33 17 -33 11 0 13 3 6 8 -7 4 -14 18 -17 32
-4 21 -4 20 -6 -7z"/>
<path d="M3052 1435 c0 -16 2 -22 5 -12 2 9 2 23 0 30 -3 6 -5 -1 -5 -18z"/>
<path d="M4038 1453 c12 -2 32 -2 45 0 12 2 2 4 -23 4 -25 0 -35 -2 -22 -4z"/>
<path d="M4148 1453 c12 -2 32 -2 45 0 12 2 2 4 -23 4 -25 0 -35 -2 -22 -4z"/>
<path d="M1884 1432 c-18 -11 -34 -48 -34 -76 0 -46 -34 -24 -49 31 -8 29 -36
42 -52 26 -12 -12 -1 -43 15 -43 14 0 59 -46 75 -77 14 -27 15 -203 1 -203 -5
0 -10 -8 -10 -17 0 -16 -9 -18 -87 -15 -107 4 -147 -3 -173 -30 -18 -19 -20
-36 -20 -150 0 -107 -2 -128 -15 -128 -8 0 -15 -4 -15 -10 0 -5 6 -10 13 -10
6 0 29 -3 50 -6 30 -5 37 -4 37 10 0 9 -7 16 -15 16 -23 0 -22 222 1 244 21
22 224 24 224 2 0 -8 7 -16 15 -20 8 -3 15 -12 15 -20 0 -8 6 -18 13 -23 6 -4
129 -10 272 -13 l260 -5 3 -82 c2 -68 0 -83 -12 -83 -8 0 -18 -4 -21 -10 -4
-6 15 -10 49 -10 31 0 56 5 56 10 0 6 -7 10 -15 10 -12 0 -15 16 -15 83 l0 83
58 2 c60 2 202 18 207 24 1 2 17 30 36 62 l33 59 -23 18 c-34 28 -45 24 -68
-25 -18 -36 -26 -43 -42 -39 -18 5 -21 13 -21 57 0 63 28 108 54 87 17 -14 46
-9 46 9 0 5 -13 10 -30 10 -27 0 -30 3 -30 33 0 18 -9 50 -20 72 -11 22 -20
58 -20 81 0 76 10 74 -386 74 -192 0 -354 -4 -360 -8z m672 -67 c18 -14 18
-14 -3 -8 -38 9 -90 -6 -121 -35 -48 -45 -57 -103 -27 -187 6 -20 6 -20 -9 -1
-15 18 -17 18 -34 2 -15 -13 -25 -14 -45 -7 -18 7 -28 7 -33 0 -3 -6 -20 -8
-38 -5 -17 3 -38 1 -46 -4 -10 -7 26 -10 110 -10 69 0 132 -5 140 -10 10 -7
-37 -9 -145 -8 l-160 3 -3 130 c-2 113 0 131 15 142 26 20 372 18 399 -2z m31
-55 c42 -25 62 -85 43 -130 -19 -45 -56 -70 -105 -70 -53 0 -91 28 -106 79
-29 97 79 176 168 121z m-539 -182 c3 -15 -5 -18 -52 -18 -50 0 -56 2 -56 21
0 18 5 20 52 17 41 -2 54 -7 56 -20z m-8 -78 c0 -16 0 -33 1 -37 0 -4 -4 -9
-10 -11 -7 -2 -10 12 -9 37 2 47 18 57 18 11z m280 -15 c11 -13 11 -18 1 -28
-10 -9 -12 -8 -9 7 1 10 -3 21 -11 24 -9 3 -11 0 -6 -8 5 -9 4 -11 -3 -6 -15
9 -16 -6 -2 -22 5 -7 3 -6 -6 2 -19 16 -12 46 9 46 8 0 20 -7 27 -15z m78 -9
c4 -21 -14 -37 -35 -29 -14 5 -18 35 -6 47 12 12 38 1 41 -18z m80 0 c4 -21
-14 -37 -35 -29 -14 5 -18 35 -6 47 12 12 38 1 41 -18z"/>
<path d="M2362 1024 c4 -21 22 -23 26 -1 2 10 -3 17 -13 17 -10 0 -15 -6 -13
-16z"/>
<path d="M2442 1026 c1 -10 8 -17 13 -17 15 1 12 24 -3 29 -9 3 -13 -2 -10
-12z"/>
<path d="M3568 1353 c7 -3 16 -2 19 1 4 3 -2 6 -13 5 -11 0 -14 -3 -6 -6z"/>
<path d="M4048 1303 c12 -2 30 -2 40 0 9 3 -1 5 -23 4 -22 0 -30 -2 -17 -4z"/>
<path d="M4158 1303 c12 -2 30 -2 40 0 9 3 -1 5 -23 4 -22 0 -30 -2 -17 -4z"/>
<path d="M4038 1283 c12 -2 32 -2 45 0 12 2 2 4 -23 4 -25 0 -35 -2 -22 -4z"/>
<path d="M4148 1283 c12 -2 32 -2 45 0 12 2 2 4 -23 4 -25 0 -35 -2 -22 -4z"/>
<path d="M3568 1273 c7 -3 16 -2 19 1 4 3 -2 6 -13 5 -11 0 -14 -3 -6 -6z"/>
<path d="M4550 1250 c0 -22 5 -30 18 -29 10 0 12 3 5 6 -7 2 -13 13 -13 23 0
10 6 21 13 23 7 3 5 6 -5 6 -13 1 -18 -7 -18 -29z"/>
<path d="M4603 1250 c0 -19 2 -29 5 -22 2 8 8 10 15 3 9 -7 12 -1 12 19 0 20
-3 26 -12 19 -7 -7 -13 -5 -15 3 -3 7 -5 -3 -5 -22z"/>
<path d="M4650 1250 c0 -25 4 -30 23 -29 16 1 18 2 5 6 -21 5 -24 23 -5 23 8
0 8 3 -2 9 -11 7 -10 10 5 14 16 4 16 5 -3 6 -19 1 -23 -4 -23 -29z"/>
<path d="M4704 1265 c-13 -32 23 -63 40 -36 4 5 -3 7 -14 4 -16 -4 -20 0 -20
17 0 17 4 21 20 17 11 -3 18 -1 14 4 -8 14 -34 11 -40 -6z"/>
<path d="M4761 1253 c-1 -27 3 -33 19 -33 13 0 22 9 26 25 8 33 24 32 25 -2 2
-28 2 -28 6 -3 3 14 10 28 17 32 6 4 -3 8 -21 8 -25 0 -32 -5 -35 -22 -5 -32
-26 -33 -31 -1 -4 27 -4 27 -6 -4z"/>
<path d="M4872 1250 c0 -19 2 -27 5 -17 2 9 2 25 0 35 -3 9 -5 1 -5 -18z"/>
<path d="M4894 1265 c-9 -23 3 -45 26 -45 11 0 20 4 20 9 0 5 -9 7 -20 4 -16
-4 -20 0 -20 17 0 17 4 21 20 17 11 -3 20 -1 20 4 0 15 -40 10 -46 -6z"/>
<path d="M4961 1250 c0 -28 2 -31 9 -15 7 18 8 19 15 3 11 -28 25 -21 25 12 0
17 -4 30 -9 30 -5 0 -7 -10 -4 -22 5 -22 4 -22 -16 2 l-21 25 1 -35z"/>
<path d="M4043 1263 c9 -2 25 -2 35 0 9 3 1 5 -18 5 -19 0 -27 -2 -17 -5z"/>
<path d="M4158 1263 c12 -2 30 -2 40 0 9 3 -1 5 -23 4 -22 0 -30 -2 -17 -4z"/>
<path d="M5287 1244 c-11 -15 -17 -41 -17 -73 0 -44 3 -51 20 -51 33 0 26 -38
-7 -43 -19 -3 -13 -5 17 -6 l45 -1 -3 82 c-3 62 -8 87 -21 99 -15 14 -18 14
-34 -7z m0 -71 c-3 -10 -5 -2 -5 17 0 19 2 27 5 18 2 -10 2 -26 0 -35z"/>
<path d="M1037 1253 c-4 -3 -6 -20 -6 -37 1 -17 3 -23 6 -13 2 9 11 17 18 17
7 0 16 -8 18 -17 3 -10 4 -4 4 12 -1 36 -22 56 -40 38z m28 -13 c3 -5 -1 -10
-10 -10 -9 0 -13 5 -10 10 3 6 8 10 10 10 2 0 7 -4 10 -10z"/>
<path d="M1097 1253 c-4 -3 -7 -19 -7 -35 0 -23 4 -28 23 -27 16 1 18 2 5 6
-21 5 -23 19 -5 26 10 4 10 6 0 6 -19 1 -16 19 5 24 14 4 14 5 1 6 -9 0 -19
-2 -22 -6z"/>
<path d="M1168 1250 c16 -19 15 -50 -2 -50 -8 0 -17 11 -19 25 -4 23 -4 23 -3
-2 1 -21 7 -29 24 -31 18 -3 22 1 22 21 0 14 -8 31 -17 38 -15 11 -16 11 -5
-1z"/>
<path d="M1291 1223 c1 -21 3 -30 6 -20 2 9 8 17 13 17 5 0 11 -8 13 -17 3
-10 4 -4 4 12 -1 28 -12 44 -29 45 -5 0 -7 -17 -7 -37z m24 17 c3 -5 1 -10 -4
-10 -6 0 -11 5 -11 10 0 6 2 10 4 10 3 0 8 -4 11 -10z"/>
<path d="M1347 1253 c-4 -3 -7 -19 -7 -35 0 -23 4 -28 23 -27 16 1 18 2 5 6
-21 5 -23 19 -5 26 10 4 10 6 0 6 -19 1 -16 19 5 24 14 4 14 5 1 6 -9 0 -19
-2 -22 -6z"/>
<path d="M1470 1225 c0 -30 3 -35 23 -34 16 1 18 2 5 6 -21 5 -24 23 -5 23 8
0 7 4 -3 10 -13 9 -13 11 0 20 13 8 12 10 -2 10 -14 0 -18 -8 -18 -35z"/>
<path d="M1589 1220 c4 -29 6 -31 9 -10 2 14 8 30 12 35 6 7 2 11 -8 11 -14 0
-17 -7 -13 -36z"/>
<path d="M1204 1220 c1 -18 7 -25 21 -25 14 0 20 7 21 25 1 22 0 22 -3 3 -2
-13 -10 -23 -18 -23 -8 0 -16 10 -18 23 -3 19 -4 19 -3 -3z"/>
<path d="M1262 1220 c0 -19 2 -27 5 -17 2 9 2 25 0 35 -3 9 -5 1 -5 -18z"/>
<path d="M1391 1218 c1 -31 1 -31 8 -8 l7 25 8 -24 c8 -23 9 -23 19 -6 10 19
11 19 18 0 6 -16 8 -13 8 13 1 37 -14 43 -25 10 l-7 -23 -10 23 c-15 32 -27
27 -26 -10z"/>
<path d="M1521 1219 c1 -31 2 -32 8 -9 l7 25 8 -22 c11 -34 26 -28 25 10 -1
18 -3 24 -6 14 -5 -18 -6 -18 -24 -1 -18 17 -19 16 -18 -17z"/>
<path d="M1630 1240 c0 -6 7 -13 15 -16 8 -4 15 -11 15 -16 0 -6 -7 -7 -16 -4
-8 3 -12 2 -9 -4 8 -12 32 -13 39 -2 3 5 -6 19 -19 30 -14 12 -25 17 -25 12z"/>
<path d="M3568 1243 c7 -3 16 -2 19 1 4 3 -2 6 -13 5 -11 0 -14 -3 -6 -6z"/>
<path d="M3575 1220 c-3 -5 -1 -10 4 -10 6 0 11 5 11 10 0 6 -2 10 -4 10 -3 0
-8 -4 -11 -10z"/>
<path d="M2980 1158 c0 -37 7 -34 14 5 2 15 0 27 -5 27 -5 0 -9 -14 -9 -32z"/>
<path d="M3034 1175 c-9 -23 4 -47 23 -43 19 3 32 58 15 58 -5 0 -7 -11 -4
-25 3 -19 0 -25 -13 -25 -13 0 -16 6 -13 25 6 28 1 33 -8 10z"/>
<path d="M3094 1175 c-13 -32 23 -63 40 -36 4 5 -4 7 -15 4 -19 -5 -21 -3 -17
20 6 29 1 36 -8 12z"/>
<path d="M3154 1160 c1 -18 7 -25 21 -25 14 0 20 7 21 25 1 22 0 22 -3 3 -2
-13 -10 -23 -18 -23 -8 0 -16 10 -18 23 -3 19 -4 19 -3 -3z"/>
<path d="M3210 1180 c0 -6 7 -13 15 -16 8 -4 15 -11 15 -16 0 -6 -7 -8 -15 -4
-8 3 -15 1 -15 -4 0 -6 9 -10 20 -10 11 0 20 6 20 13 0 7 -9 20 -20 30 -11 9
-20 12 -20 7z"/>
<path d="M3568 1163 c7 -3 16 -2 19 1 4 3 -2 6 -13 5 -11 0 -14 -3 -6 -6z"/>
<path d="M2757 1139 c17 -16 113 -38 119 -27 6 10 -11 26 -31 29 -35 6 -94 4
-88 -2z"/>
<path d="M5422 1137 c-5 -7 -12 -24 -14 -39 -4 -24 -2 -27 26 -31 17 -2 -92
-5 -241 -5 l-273 -2 0 -425 0 -425 55 0 55 0 0 -50 c0 -42 -3 -50 -19 -50 -24
0 -43 -23 -35 -44 5 -14 35 -16 264 -16 163 0 261 4 265 10 12 20 -6 50 -31
50 -22 0 -24 4 -24 50 l0 50 60 0 60 0 0 165 0 165 -35 0 -34 0 -3 -137 -3
-138 -27 -3 c-28 -3 -28 -4 -28 -78 l0 -74 -200 0 -200 0 0 160 0 160 60 0 60
0 0 68 c0 92 15 107 106 104 l64 -3 0 31 0 30 -170 0 -170 0 0 165 0 165 255
0 255 0 0 -110 0 -110 35 0 35 0 0 145 0 145 -49 0 c-52 0 -61 8 -61 55 0 26
-24 40 -38 22z"/>
<path d="M3570 1120 c0 -15 7 -20 25 -20 23 0 24 2 15 20 -6 11 -17 20 -25 20
-8 0 -15 -9 -15 -20z"/>
<path d="M5180 1099 c0 -12 -9 -19 -27 -22 -16 -2 -5 -5 24 -6 50 -1 51 -1 40
22 -13 28 -37 31 -37 6z"/>
<path d="M3910 800 l0 -290 -575 0 -575 0 0 -60 0 -60 575 0 575 0 0 -80 0
-80 55 0 55 0 0 -65 0 -65 100 0 100 0 0 65 0 65 55 0 55 0 -2 73 -2 72 -3
-67 -4 -68 -199 0 -200 0 0 420 0 420 200 0 200 0 3 -282 2 -283 3 288 2 287
-210 0 -210 0 0 -290z m-1072 -353 c2 -10 -3 -17 -12 -17 -18 0 -29 16 -21 31
9 14 29 6 33 -14z m110 0 c2 -10 -3 -17 -12 -17 -18 0 -29 16 -21 31 9 14 29
6 33 -14z m108 12 c10 -17 -13 -36 -27 -22 -12 12 -4 33 11 33 5 0 12 -5 16
-11z m114 -9 c0 -11 -7 -20 -15 -20 -8 0 -15 9 -15 20 0 11 7 20 15 20 8 0 15
-9 15 -20z m115 -1 c0 -7 -8 -15 -17 -17 -18 -3 -25 18 -11 32 10 10 28 1 28
-15z m120 0 c0 -7 -8 -15 -17 -17 -18 -3 -25 18 -11 32 10 10 28 1 28 -15z
m105 1 c0 -11 -7 -20 -15 -20 -8 0 -15 9 -15 20 0 11 7 20 15 20 8 0 15 -9 15
-20z m116 9 c10 -17 -13 -36 -27 -22 -12 12 -4 33 11 33 5 0 12 -5 16 -11z
m109 -10 c0 -7 -8 -15 -17 -17 -18 -3 -25 18 -11 32 10 10 28 1 28 -15z m120
0 c0 -7 -8 -15 -17 -17 -18 -3 -25 18 -11 32 10 10 28 1 28 -15z"/>
<path d="M3495 1070 c-4 -6 22 -10 70 -10 48 0 74 4 70 10 -3 6 -35 10 -70 10
-35 0 -67 -4 -70 -10z"/>
<path d="M5033 1073 c9 -2 25 -2 35 0 9 3 1 5 -18 5 -19 0 -27 -2 -17 -5z"/>
<path d="M5022 954 c-11 -12 -7 -14 25 -15 l38 -2 -40 -7 c-22 -4 -33 -8 -25
-9 10 -1 11 -4 4 -9 -9 -5 -8 -11 2 -20 8 -7 14 -8 14 -2 0 5 9 10 20 10 16 0
20 -6 19 -32 -1 -18 -3 -25 -6 -15 -2 9 -8 17 -13 17 -5 0 -7 -7 -4 -15 4 -8
1 -15 -5 -15 -6 0 -11 7 -11 15 0 8 -5 15 -11 15 -5 0 -7 -5 -3 -11 3 -6 0
-15 -7 -20 -10 -6 -1 -9 26 -10 l40 -2 -40 -7 -40 -7 40 -3 40 -3 -40 -7 c-22
-4 -34 -8 -27 -9 6 0 12 -14 12 -30 0 -16 -6 -32 -12 -34 -7 -3 5 -6 27 -8
l40 -2 -40 -7 -40 -7 37 -2 c20 0 39 -7 41 -13 4 -10 6 -10 6 0 1 18 19 15 24
-5 4 -17 5 -17 6 0 1 20 17 23 24 5 4 -10 6 -10 6 0 1 14 71 17 71 2 0 -5 5
-10 11 -10 5 0 7 5 4 10 -3 6 -2 10 4 10 5 0 12 -6 14 -12 4 -10 6 -10 6 0 1
18 19 15 24 -5 4 -17 5 -17 6 0 1 20 17 23 24 5 4 -10 6 -10 6 0 1 6 9 12 19
13 15 0 14 2 -3 10 -18 8 -18 9 5 8 52 -2 134 4 113 8 -18 3 -23 11 -23 34 0
23 5 29 23 30 21 1 21 1 -3 8 l-25 8 25 5 c19 4 16 6 -15 8 l-40 3 40 7 c22 4
30 8 18 9 -19 1 -23 7 -23 31 0 24 4 30 23 31 21 1 21 1 -3 9 l-25 8 25 2 25
2 -25 7 -25 8 25 5 c23 5 23 5 3 7 -13 0 -23 7 -23 14 0 8 -4 7 -10 -3 -8 -12
-11 -13 -19 -1 -7 11 -9 11 -14 0 -4 -12 -7 -11 -16 1 -7 10 -11 11 -11 3 0
-7 -9 -13 -20 -13 -11 0 -20 6 -20 13 0 8 -4 7 -10 -3 -8 -12 -11 -13 -19 -1
-7 11 -9 11 -14 0 -5 -12 -7 -12 -15 0 -8 11 -10 11 -15 0 -4 -12 -7 -11 -16
1 -7 10 -11 11 -11 3 0 -7 -9 -13 -20 -13 -11 0 -20 6 -20 13 0 8 -4 7 -10 -3
-8 -12 -11 -13 -19 -1 -7 11 -10 11 -15 0 -5 -12 -7 -12 -12 0 -5 11 -8 11
-15 0 -8 -12 -11 -11 -19 1 -6 10 -10 11 -10 3 0 -15 -37 -18 -42 -4 -1 5 -9
3 -16 -5z m206 -21 c-16 -2 -40 -2 -55 0 -16 2 -3 4 27 4 30 0 43 -2 28 -4z
m125 0 c-7 -2 -19 -2 -25 0 -7 3 -2 5 12 5 14 0 19 -2 13 -5z m-280 -20 c-7
-2 -19 -2 -25 0 -7 3 -2 5 12 5 14 0 19 -2 13 -5z m140 0 c-7 -2 -19 -2 -25 0
-7 3 -2 5 12 5 14 0 19 -2 13 -5z m140 0 c-7 -2 -19 -2 -25 0 -7 3 -2 5 12 5
14 0 19 -2 13 -5z m-243 -43 c0 -16 -4 -30 -9 -30 -5 0 -8 14 -7 30 0 17 4 30
8 30 5 0 8 -13 8 -30z m26 0 c1 -16 -2 -30 -7 -30 -5 0 -9 14 -9 30 0 17 3 30
8 30 4 0 8 -13 8 -30z m29 0 c0 -16 -3 -30 -7 -30 -5 0 -8 14 -8 30 0 17 4 30
8 30 4 0 8 -13 7 -30z m36 10 c6 0 7 5 4 10 -3 6 -1 10 4 10 6 0 11 -13 11
-30 0 -16 -4 -30 -10 -30 -5 0 -7 7 -4 15 4 8 1 15 -4 15 -6 0 -13 -8 -15 -17
-3 -10 -5 -2 -5 17 0 19 2 29 5 23 2 -7 9 -13 14 -13z m49 -10 c0 -16 -3 -30
-8 -30 -4 0 -7 14 -7 30 -1 17 3 30 7 30 4 0 8 -13 8 -30z m30 0 c0 -16 -4
-30 -9 -30 -5 0 -8 14 -7 30 0 17 4 30 8 30 5 0 8 -13 8 -30z m26 0 c1 -16 -2
-30 -7 -30 -5 0 -9 14 -9 30 0 17 3 30 8 30 4 0 8 -13 8 -30z m54 0 c0 -16 -4
-30 -10 -30 -5 0 -7 7 -4 15 4 8 1 15 -4 15 -6 0 -13 -8 -15 -17 -3 -10 -5 -3
-6 15 -1 26 3 32 19 32 16 0 20 -7 20 -30z m30 0 c0 -16 -4 -30 -10 -30 -5 0
-10 14 -10 30 0 17 5 30 10 30 6 0 10 -13 10 -30z m26 0 c1 -16 -2 -30 -7 -30
-5 0 -9 14 -9 30 0 17 3 30 8 30 4 0 8 -13 8 -30z m-188 -47 c-16 -2 -40 -2
-55 0 -16 2 -3 4 27 4 30 0 43 -2 28 -4z m125 0 c-7 -2 -19 -2 -25 0 -7 3 -2
5 12 5 14 0 19 -2 13 -5z m-140 -20 c-7 -2 -19 -2 -25 0 -7 3 -2 5 12 5 14 0
19 -2 13 -5z m140 0 c-7 -2 -19 -2 -25 0 -7 3 -2 5 12 5 14 0 19 -2 13 -5z
m-298 -23 c-3 -5 -2 -10 4 -10 5 0 12 6 14 13 3 6 5 -4 5 -23 0 -19 -2 -27 -5
-17 -2 9 -8 17 -13 17 -5 0 -7 -7 -4 -15 4 -8 1 -15 -5 -15 -6 0 -11 14 -11
30 0 17 5 30 11 30 5 0 7 -4 4 -10z m55 -20 c0 -16 -4 -30 -10 -30 -5 0 -10
14 -10 30 0 17 5 30 10 30 6 0 10 -13 10 -30z m30 0 c0 -16 -4 -30 -10 -30 -5
0 -10 14 -10 30 0 17 5 30 10 30 6 0 10 -13 10 -30z m25 0 c0 -16 -3 -30 -7
-30 -5 0 -8 14 -8 30 0 17 4 30 8 30 4 0 8 -13 7 -30z m22 -17 c-3 -10 -5 -2
-5 17 0 19 2 27 5 18 2 -10 2 -26 0 -35z m33 15 c0 -37 -7 -34 -14 5 -2 15 0
27 5 27 5 0 9 -14 9 -32z m30 2 c0 -16 -3 -30 -8 -30 -4 0 -7 14 -7 30 -1 17
3 30 7 30 4 0 8 -13 8 -30z m30 0 c0 -16 -4 -30 -10 -30 -5 0 -10 14 -10 30 0
17 5 30 10 30 6 0 10 -13 10 -30z m30 0 c0 -16 -4 -30 -10 -30 -5 0 -10 14
-10 30 0 17 5 30 10 30 6 0 10 -13 10 -30z m50 0 c0 -16 -4 -30 -10 -30 -5 0
-7 7 -4 15 4 8 1 15 -4 15 -6 0 -13 -8 -15 -17 -3 -10 -5 -3 -6 15 -1 26 3 32
19 32 16 0 20 -7 20 -30z m30 0 c0 -16 -4 -30 -10 -30 -5 0 -10 14 -10 30 0
17 5 30 10 30 6 0 10 -13 10 -30z m30 0 c0 -16 -4 -30 -10 -30 -5 0 -10 14
-10 30 0 17 5 30 10 30 6 0 10 -13 10 -30z m-192 -47 c-16 -2 -40 -2 -55 0
-16 2 -3 4 27 4 30 0 43 -2 28 -4z"/>
<path d="M3161 934 c0 -11 3 -14 6 -6 3 7 2 16 -1 19 -3 4 -6 -2 -5 -13z"/>
<path d="M5448 883 c7 -3 16 -2 19 1 4 3 -2 6 -13 5 -11 0 -14 -3 -6 -6z"/>
<path d="M5440 860 c0 -5 4 -10 9 -10 6 0 13 5 16 10 3 6 -1 10 -9 10 -9 0
-16 -4 -16 -10z"/>
<path d="M4470 680 l0 -111 138 3 137 3 3 108 3 107 -141 0 -140 0 0 -110z
m260 0 l0 -100 -125 0 -125 0 0 100 0 100 125 0 125 0 0 -100z"/>
<path d="M5440 750 c0 -5 5 -10 10 -10 6 0 10 5 10 10 0 6 -4 10 -10 10 -5 0
-10 -4 -10 -10z"/>
<path d="M5916 735 c-19 -19 -20 -38 -6 -66 14 -25 7 -24 -44 6 l-43 25 -17
-24 c-8 -14 -13 -32 -10 -40 3 -8 -13 -47 -37 -86 -23 -40 -38 -75 -33 -79 17
-15 215 -131 224 -131 4 0 28 33 51 74 25 43 48 72 56 69 6 -3 19 9 27 25 l16
30 -48 29 -47 28 30 3 c40 5 55 19 55 52 0 39 -24 57 -60 43 -28 -10 -29 -10
-32 21 -3 27 -7 31 -34 34 -19 2 -38 -3 -48 -13z m68 -38 c-1 -21 -8 -45 -16
-54 -14 -13 -18 -12 -37 13 -36 45 -21 88 29 82 22 -3 25 -7 24 -41z m91 -47
l0 -35 -52 -3 c-29 -2 -53 1 -53 6 0 6 13 24 30 42 41 44 75 39 75 -10z m-194
4 c41 -23 47 -29 38 -45 -12 -24 -12 -24 -65 7 -41 24 -53 42 -37 57 9 10 11
10 64 -19z m-19 -57 l37 -23 -41 -70 c-23 -38 -42 -70 -44 -72 -1 -2 -20 8
-43 22 l-40 26 42 70 c23 38 44 70 47 70 3 0 22 -11 42 -23z m108 6 c0 -20
-23 -41 -38 -36 -14 6 -15 4 -5 -8 9 -11 3 -28 -28 -81 -40 -67 -52 -78 -64
-57 -11 17 104 199 121 192 8 -3 14 -7 14 -10z m65 -40 c49 -30 49 -31 35 -53
-8 -13 -16 -12 -55 10 -55 30 -61 36 -45 55 16 19 11 20 65 -12z m-41 -44 c20
-12 36 -24 36 -27 0 -3 -18 -36 -40 -74 l-41 -68 -39 22 c-22 13 -40 26 -40
31 0 6 17 36 66 115 17 27 15 27 58 1z"/>
<path d="M4040 675 c0 -18 5 -25 19 -25 14 0 17 6 13 25 -2 14 -11 25 -18 25
-8 0 -14 -10 -14 -25z"/>
<path d="M7934 688 c-30 -14 -57 -64 -50 -94 4 -14 22 -34 41 -46 19 -11 35
-21 35 -21 0 -1 -36 -1 -80 1 l-80 4 0 -51 c0 -39 4 -51 15 -51 12 0 15 -19
15 -115 0 -94 -3 -117 -15 -121 -9 -4 -15 -19 -15 -35 0 -24 4 -29 25 -29 20
0 25 -5 25 -23 0 -24 15 -41 57 -64 42 -24 49 -19 85 60 l12 27 118 0 c108 0
118 -2 118 -19 0 -10 9 -30 20 -43 10 -14 16 -28 13 -32 -14 -14 30 -5 68 14
29 15 41 29 46 50 3 17 12 30 19 30 16 0 20 55 5 64 -5 3 -11 29 -13 58 -3 29
-13 70 -22 91 l-17 38 -67 -3 -67 -3 -6 -95 -5 -95 -2 123 c-2 103 0 122 13
122 11 0 15 12 15 45 l0 44 -77 3 -78 3 37 22 c46 27 56 61 32 103 -32 53 -92
53 -115 -1 l-12 -31 -18 35 c-20 38 -43 49 -75 35z m49 -26 c16 -18 42 -120
33 -130 -8 -8 -73 18 -94 39 -28 25 -28 56 0 86 26 28 40 29 61 5z m144 -4
c29 -27 29 -61 1 -87 -22 -22 -86 -47 -94 -38 -11 11 9 98 28 122 24 31 35 31
65 3z m-147 -178 l0 -30 -83 0 -84 0 5 30 4 30 79 0 79 0 0 -30z m70 0 c0 -25
-4 -30 -25 -30 -21 0 -25 5 -25 30 0 25 4 30 25 30 21 0 25 -5 25 -30z m180
-6 l0 -37 -46 7 c-26 3 -64 6 -85 6 -37 0 -39 2 -39 30 l0 30 85 0 85 0 0 -36z
m-250 -159 l0 -115 -71 0 c-61 0 -70 2 -65 16 3 9 6 60 6 115 l0 99 65 0 65 0
0 -115z m70 0 l0 -115 -27 0 -28 0 3 115 c3 114 3 115 28 115 l24 0 0 -115z
m150 0 l0 -115 -70 0 -70 0 0 115 0 115 70 0 70 0 0 -115z m72 -5 l-4 -50 61
0 61 0 0 -30 0 -30 -75 0 -75 0 0 80 c0 70 2 80 18 80 14 0 16 -8 14 -50z m99
5 l17 -45 -49 0 -49 0 0 45 c0 44 1 45 33 45 29 0 34 -4 48 -45z m-511 -155
c-6 -11 -17 -20 -25 -20 -8 0 -15 9 -15 20 0 15 7 20 25 20 23 0 24 -2 15 -20z
m102 3 c39 -35 11 -103 -43 -103 -30 0 -59 31 -59 62 0 25 35 58 62 58 12 0
30 -7 40 -17z m288 -3 c-10 -18 -21 -20 -133 -20 -111 0 -123 2 -135 20 -12
20 -10 20 133 20 143 0 145 0 135 -20z m97 12 c33 -21 32 -82 -1 -104 -34 -23
-96 11 -96 52 0 42 61 75 97 52z m63 -12 c0 -23 -10 -26 -28 -8 -18 18 -15 28
8 28 13 0 20 -7 20 -20z"/>
<path d="M560 677 c0 -7 9 -20 20 -30 11 -9 20 -12 20 -7 0 6 -7 13 -15 16 -8
4 -15 11 -15 16 0 6 7 7 16 4 8 -3 12 -2 9 4 -9 14 -35 12 -35 -3z"/>
<path d="M616 682 c7 -4 14 -18 16 -32 3 -23 4 -22 9 8 5 27 3 32 -15 32 -13
0 -17 -3 -10 -8z"/>
<path d="M667 684 c-4 -4 -7 -19 -6 -33 0 -14 3 -20 6 -13 2 6 11 12 18 12 7
0 16 -6 18 -12 3 -7 4 0 3 17 -1 29 -23 45 -39 29z m33 -14 c0 -5 -7 -10 -15
-10 -8 0 -15 5 -15 10 0 6 7 10 15 10 8 0 15 -4 15 -10z"/>
<path d="M721 664 c-1 -34 19 -50 38 -31 6 6 10 22 10 37 -1 23 -2 23 -8 -5
-3 -16 -11 -30 -16 -30 -5 0 -13 14 -16 30 l-7 30 -1 -31z"/>
<path d="M785 682 c-3 -3 -5 -15 -5 -28 0 -28 25 -38 42 -16 11 15 11 15 -3 5
-18 -15 -29 -8 -29 18 0 13 8 17 30 17 25 -1 30 -5 31 -27 l2 -26 4 25 c3 14
10 28 17 32 6 4 -10 7 -36 6 -26 0 -50 -3 -53 -6z"/>
<path d="M892 660 c0 -19 2 -27 5 -17 2 9 2 25 0 35 -3 9 -5 1 -5 -18z"/>
<path d="M929 662 c-3 -20 -2 -29 4 -23 5 5 7 19 5 32 -3 20 -5 19 -9 -9z"/>
<path d="M950 658 c0 -25 3 -29 10 -18 9 13 11 13 20 0 7 -11 10 -7 10 18 0
25 -4 32 -20 32 -16 0 -20 -7 -20 -32z m30 12 c0 -5 -4 -10 -10 -10 -5 0 -10
5 -10 10 0 6 5 10 10 10 6 0 10 -4 10 -10z"/>
<path d="M1009 688 c-6 -25 -5 -58 2 -58 6 0 7 5 4 10 -3 6 2 10 12 10 17 1
16 2 -2 12 -19 11 -19 11 0 19 17 7 18 8 3 8 -10 1 -18 0 -19 -1z"/>
<path d="M1813 674 c-3 -9 -1 -25 6 -35 10 -17 8 -19 -19 -19 -30 0 -30 -1
-30 -53 0 -42 5 -58 20 -72 18 -16 19 -20 5 -28 -31 -17 -2 -27 76 -27 l80 0
-3 88 -3 87 -47 3 c-49 3 -57 9 -36 30 8 8 8 15 -2 27 -16 20 -39 19 -47 -1z
m117 -125 c0 -5 -11 -9 -25 -9 -24 0 -32 10 -19 22 8 8 44 -3 44 -13z m-18
-34 c0 -5 -5 -11 -11 -13 -6 -2 -11 4 -11 13 0 9 5 15 11 13 6 -2 11 -8 11
-13z m16 -37 c-6 -18 -58 -22 -58 -3 0 10 10 15 31 15 19 0 29 -4 27 -12z"/>
<path d="M1202 668 c-7 -7 -12 -20 -12 -30 0 -17 17 -18 280 -18 263 0 280 1
280 18 0 40 -15 42 -280 42 -186 0 -259 -3 -268 -12z m86 -19 c-2 -6 -8 -10
-13 -10 -5 0 -11 4 -13 10 -2 6 4 11 13 11 9 0 15 -5 13 -11z m40 0 c-2 -6 -8
-10 -13 -10 -5 0 -11 4 -13 10 -2 6 4 11 13 11 9 0 15 -5 13 -11z"/>
<path d="M2340 480 l0 -190 178 2 177 3 0 185 0 185 -177 3 -178 2 0 -190z"/>
<path d="M6360 623 c0 -21 4 -33 8 -27 4 6 15 13 25 17 25 9 17 41 -11 45 -19
3 -22 -1 -22 -35z m32 12 c0 -5 -5 -11 -11 -13 -6 -2 -11 4 -11 13 0 9 5 15
11 13 6 -2 11 -8 11 -13z"/>
<path d="M6420 625 c0 -35 20 -51 20 -17 1 16 1 16 14 0 18 -24 25 -22 22 5
-3 33 -14 47 -37 47 -15 0 -19 -7 -19 -35z m40 15 c0 -5 -4 -10 -10 -10 -5 0
-10 5 -10 10 0 6 5 10 10 10 6 0 10 -4 10 -10z"/>
<path d="M6497 654 c-12 -12 -8 -51 6 -63 20 -16 50 9 45 40 -3 24 -35 38 -51
23z m33 -29 c0 -16 -6 -25 -15 -25 -15 0 -21 31 -8 43 13 14 23 6 23 -18z"/>
<path d="M6560 626 c0 -32 3 -36 25 -36 47 0 44 61 -4 68 -18 3 -21 -1 -21
-32z m40 -1 c0 -14 -4 -25 -10 -25 -5 0 -10 11 -10 25 0 14 5 25 10 25 6 0 10
-11 10 -25z"/>
<path d="M6632 628 c-2 -39 11 -51 41 -36 18 9 25 68 7 68 -5 0 -10 -13 -10
-30 0 -42 -27 -40 -33 3 l-4 32 -1 -37z"/>
<path d="M6707 653 c-11 -10 -8 -48 4 -60 6 -6 18 -9 25 -6 20 7 17 21 -3 19
-12 -1 -18 6 -18 19 0 13 6 20 18 19 9 -1 17 2 17 7 0 10 -34 12 -43 2z"/>
<path d="M6768 653 c6 -2 12 -18 12 -34 0 -16 5 -29 10 -29 6 0 10 13 10 29 0
16 6 32 13 34 6 3 -4 5 -23 5 -19 0 -29 -2 -22 -5z"/>
<path d="M2025 601 c-30 -7 -30 -7 -7 -19 20 -11 22 -20 22 -88 0 -68 -2 -75
-22 -84 -22 -8 -22 -9 5 -9 15 -1 27 -5 27 -11 0 -16 191 -12 213 4 14 11 17
29 17 108 0 91 -1 96 -22 102 -30 8 -194 6 -233 -3z"/>
<path d="M2000 495 c0 -43 4 -75 10 -75 6 0 10 32 10 75 0 43 -4 75 -10 75 -6
0 -10 -32 -10 -75z"/>
<path d="M8290 479 c0 -36 2 -40 23 -37 42 6 33 77 -10 78 -8 0 -13 -15 -13
-41z m40 1 c0 -25 -18 -36 -26 -16 -8 21 3 49 16 41 5 -3 10 -15 10 -25z"/>
<path d="M8360 480 c0 -35 3 -40 23 -39 17 1 18 2 4 6 -19 5 -17 30 2 26 6 -2
11 2 11 7 0 6 -8 10 -17 10 -16 1 -16 2 1 15 19 15 19 15 -2 15 -19 0 -22 -6
-22 -40z"/>
<path d="M8500 512 c0 -18 22 -72 30 -72 4 0 11 11 14 24 3 13 9 32 13 42 4
12 3 15 -5 10 -7 -4 -12 -16 -12 -27 0 -10 -4 -19 -10 -19 -5 0 -10 9 -10 19
0 11 -4 23 -10 26 -5 3 -10 2 -10 -3z"/>
<path d="M8570 480 c0 -37 2 -40 28 -39 26 0 27 0 4 10 -13 5 -20 13 -17 19 4
6 11 8 16 5 5 -4 9 -1 9 4 0 6 -8 11 -17 11 -16 1 -16 2 1 15 19 15 19 15 -2
15 -19 0 -22 -6 -22 -40z"/>
<path d="M8631 478 c1 -24 3 -35 6 -25 2 9 8 17 13 17 5 0 13 -8 19 -17 8 -14
10 -11 9 17 -1 35 -11 50 -35 50 -9 0 -13 -14 -12 -42z m30 9 c-13 -13 -26 -3
-16 12 3 6 11 8 17 5 6 -4 6 -10 -1 -17z"/>
<path d="M4330 448 l0 -63 290 3 290 3 0 59 0 60 -290 0 -290 0 0 -62z m84 7
c3 -9 -1 -18 -10 -22 -19 -7 -28 2 -21 22 8 19 23 19 31 0z m111 -6 c0 -7 -8
-15 -17 -17 -18 -3 -25 18 -11 32 10 10 28 1 28 -15z m108 7 c7 -16 -1 -26
-20 -26 -7 0 -13 9 -13 20 0 23 25 27 33 6z m113 3 c10 -17 -13 -36 -27 -22
-12 12 -4 33 11 33 5 0 12 -5 16 -11z m112 -12 c2 -10 -3 -17 -12 -17 -18 0
-29 16 -21 31 9 14 29 6 33 -14z"/>
<path d="M8410 491 c0 -34 12 -51 34 -50 16 1 17 2 4 6 -12 3 -18 14 -18 34 0
16 -4 29 -10 29 -5 0 -10 -9 -10 -19z"/>
<path d="M8470 481 c0 -17 5 -33 10 -36 6 -4 10 8 10 29 0 20 -4 36 -10 36 -5
0 -10 -13 -10 -29z"/>
<path d="M5580 451 c0 -22 5 -31 16 -31 10 0 14 -7 12 -17 -2 -10 -10 -17 -17
-15 -8 2 -11 -7 -9 -25 3 -23 33 -45 233 -167 l230 -140 122 -6 c92 -4 119 -2
110 6 -7 7 -155 98 -330 203 -175 106 -330 199 -343 207 -24 16 -24 16 -24
-15z m130 -106 c0 -8 -9 -15 -20 -15 -11 0 -20 7 -20 15 0 8 9 15 20 15 11 0
20 -7 20 -15z m94 -66 c-8 -14 -34 -11 -34 4 0 8 3 17 7 20 9 9 34 -13 27 -24z
m106 -54 c0 -8 -9 -15 -20 -15 -11 0 -20 7 -20 15 0 8 9 15 20 15 11 0 20 -7
20 -15z m88 -58 c2 -10 -3 -17 -12 -17 -18 0 -29 16 -21 31 9 14 29 6 33 -14z
m98 -48 c10 -17 -13 -36 -27 -22 -12 12 -4 33 11 33 5 0 12 -5 16 -11z"/>
<path d="M4030 456 c-6 -8 -10 -25 -8 -38 2 -18 9 -23 32 -23 50 0 62 58 15
73 -10 3 -8 -2 5 -16 22 -25 15 -52 -14 -52 -26 0 -37 27 -21 51 13 22 8 25
-9 5z"/>
<path d="M4140 456 c-21 -26 -8 -61 24 -64 16 -2 32 2 37 10 11 17 11 48 1 48
-5 0 -8 -10 -8 -22 1 -18 -5 -24 -25 -26 -23 -3 -26 1 -25 25 1 20 7 29 26 34
22 6 23 7 4 8 -12 1 -27 -6 -34 -13z"/>
<path d="M6457 412 c-24 -26 -21 -66 6 -85 21 -15 20 -16 -30 -16 l-53 -1 0
-35 c0 -19 5 -35 10 -35 6 0 10 -37 10 -90 l0 -90 140 0 140 0 0 90 c0 53 4
90 10 90 6 0 10 16 10 35 l0 35 -52 1 c-51 0 -52 1 -30 16 28 19 29 63 3 87
-25 22 -53 17 -66 -12 -12 -28 -18 -28 -30 1 -13 28 -46 33 -68 9z m61 -17
c13 -29 16 -85 5 -85 -19 0 -73 41 -73 56 0 51 49 72 68 29z m102 6 c17 -33
11 -50 -22 -71 -44 -27 -48 -25 -48 13 0 61 47 100 70 58z m-110 -126 c0 -24
-3 -25 -60 -25 -57 0 -60 1 -60 25 0 24 3 25 60 25 57 0 60 -1 60 -25z m50 0
c0 -18 -5 -25 -20 -25 -15 0 -20 7 -20 25 0 18 5 25 20 25 15 0 20 -7 20 -25z
m128 -2 c3 -22 0 -23 -57 -23 -59 0 -61 1 -61 25 0 25 2 26 58 23 50 -3 57 -6
60 -25z m-178 -118 l0 -85 -50 0 -50 0 0 85 0 85 50 0 50 0 0 -85z m49 0 c-2
-76 -4 -85 -20 -85 -17 0 -19 9 -19 85 0 79 1 85 21 85 19 0 20 -5 18 -85z
m101 0 l0 -85 -45 0 -45 0 0 85 0 85 45 0 45 0 0 -85z"/>
<path d="M1790 392 c0 -19 5 -29 15 -29 10 0 15 10 15 29 0 18 -5 28 -15 28
-10 0 -15 -10 -15 -28z"/>
<path d="M2950 200 c0 -16 2 -30 4 -30 2 0 6 14 8 30 3 17 1 30 -4 30 -4 0 -8
-13 -8 -30z"/>
<path d="M2992 200 c0 -19 2 -27 5 -17 2 9 2 25 0 35 -3 9 -5 1 -5 -18z"/>
<path d="M3021 200 c0 -33 1 -34 10 -11 6 16 6 28 -1 35 -7 7 -10 -1 -9 -24z"/>
<path d="M3061 218 c0 -7 4 -22 9 -33 7 -17 9 -15 9 13 1 17 -3 32 -9 32 -5 0
-10 -6 -9 -12z"/>
<path d="M3090 200 c0 -25 4 -30 23 -29 16 1 18 2 5 6 -21 5 -23 19 -5 26 9 4
9 6 -1 6 -7 1 -10 6 -7 11 3 6 1 10 -4 10 -6 0 -11 -13 -11 -30z"/>
<path d="M3161 198 c0 -27 2 -30 9 -13 7 18 8 19 15 3 7 -18 25 -15 25 3 0 6
-4 8 -9 4 -5 -3 -12 4 -16 15 -10 31 -25 24 -24 -12z"/>
<path d="M3216 203 c10 -40 14 -41 14 -5 0 18 -5 32 -10 32 -6 0 -8 -11 -4
-27z"/>
<path d="M3250 204 c-14 -36 -12 -43 5 -14 10 18 14 20 15 8 0 -9 4 -19 10
-23 5 -3 5 7 -1 25 -13 37 -17 37 -29 4z"/>
<path d="M3300 201 c0 -17 2 -31 4 -31 8 0 13 51 5 56 -5 3 -9 -9 -9 -25z"/>
<path d="M3341 218 c0 -9 -5 -18 -11 -20 -6 -2 -6 -9 0 -18 13 -21 22 -7 17
27 -2 15 -5 21 -6 11z"/>
<path d="M3366 208 c-10 -38 -6 -45 9 -18 10 18 14 20 15 8 0 -9 4 -19 10 -23
5 -3 5 7 -1 25 -13 36 -24 38 -33 8z"/>
<path d="M3415 220 c-3 -6 -3 -19 0 -30 8 -25 45 -27 45 -2 0 13 -2 14 -9 3
-12 -19 -34 -3 -28 20 6 21 2 25 -8 9z"/>
<path d="M3470 200 c0 -25 4 -30 23 -29 20 0 21 1 2 8 -19 8 -19 8 0 19 18 10
19 11 2 12 -10 0 -15 5 -12 10 3 6 1 10 -4 10 -6 0 -11 -13 -11 -30z"/>
<path d="M3521 198 c1 -31 1 -31 8 -8 l7 25 8 -24 c8 -23 9 -23 19 -6 10 19
11 19 18 0 6 -16 8 -13 8 13 1 37 -14 43 -25 10 l-7 -23 -10 23 c-15 32 -27
27 -26 -10z"/>
<path d="M3600 200 c0 -25 4 -30 23 -29 16 1 18 2 5 6 -21 5 -23 19 -5 26 9 4
9 6 -1 6 -7 1 -10 6 -7 11 3 6 1 10 -4 10 -6 0 -11 -13 -11 -30z"/>
<path d="M3652 200 c0 -23 2 -27 5 -12 l4 22 19 -22 19 -23 -1 35 c0 23 -2 27
-5 12 l-4 -22 -19 22 -19 23 1 -35z"/>
<path d="M3728 200 c2 -16 6 -30 8 -30 2 0 4 14 4 30 0 17 -4 30 -8 30 -5 0
-7 -13 -4 -30z"/>
<path d="M3047 193 c-4 -3 -7 -11 -7 -17 0 -6 5 -5 12 2 6 6 9 14 7 17 -3 3
-9 2 -12 -2z"/>
<path d="M1988 138 c9 -9 15 -9 24 0 9 9 7 12 -12 12 -19 0 -21 -3 -12 -12z"/>
<path d="M2037 143 c-4 -3 -7 -19 -7 -35 0 -23 4 -28 23 -27 16 1 18 2 5 6
-10 2 -18 8 -18 13 0 5 8 11 18 13 16 4 16 5 0 6 -10 0 -18 5 -18 10 0 5 8 12
18 14 14 4 14 5 1 6 -9 0 -19 -2 -22 -6z"/>
<path d="M2141 115 c0 -35 1 -37 10 -17 6 15 5 30 -1 40 -7 13 -9 8 -9 -23z"/>
<path d="M2320 135 c-17 -20 -8 -50 15 -50 14 0 21 8 23 26 4 31 -20 45 -38
24z m30 -26 c0 -10 -7 -19 -15 -19 -15 0 -21 31 -9 43 11 10 24 -3 24 -24z"/>
<path d="M2377 143 c-4 -3 -6 -20 -6 -37 1 -17 3 -23 6 -13 2 9 11 17 18 17 7
0 16 -8 18 -17 3 -10 4 -7 3 7 -3 40 -22 61 -39 43z m28 -13 c3 -5 -1 -10 -10
-10 -9 0 -13 5 -10 10 3 6 8 10 10 10 2 0 7 -4 10 -10z"/>
<path d="M2090 116 c-14 -38 -12 -46 5 -16 10 18 14 20 15 8 0 -9 5 -20 11
-24 8 -4 9 1 4 17 -12 39 -23 44 -35 15z"/>
<path d="M2186 131 c-4 -5 -2 -20 3 -33 9 -21 10 -21 10 10 1 32 -3 39 -13 23z"/>
<path d="M2237 117 c3 -15 9 -30 14 -33 14 -8 10 20 -5 41 -13 18 -14 18 -9
-8z"/>
<path d="M2260 125 c0 -8 5 -15 10 -15 6 0 10 7 10 15 0 8 -4 15 -10 15 -5 0
-10 -7 -10 -15z"/>
<path d="M2286 114 c-4 -14 -5 -29 -2 -31 3 -3 8 7 12 21 3 15 4 29 1 32 -2 3
-8 -7 -11 -22z"/>
<path d="M2431 110 c0 -26 2 -30 8 -15 8 19 8 19 19 0 6 -11 12 -15 12 -8 0 6
-5 15 -10 18 -8 5 -7 12 2 23 11 15 11 15 -4 4 -13 -10 -17 -10 -21 0 -3 7 -5
-3 -6 -22z"/>
<path d="M2001 104 c0 -11 3 -14 6 -6 3 7 2 16 -1 19 -3 4 -6 -2 -5 -13z"/>
<path d="M2160 100 c0 -5 5 -10 11 -10 5 0 7 5 4 10 -3 6 -8 10 -11 10 -2 0
-4 -4 -4 -10z"/>
<path d="M6418 33 c6 -2 18 -2 25 0 6 3 1 5 -13 5 -14 0 -19 -2 -12 -5z"/>
<path d="M6508 33 c6 -2 18 -2 25 0 6 3 1 5 -13 5 -14 0 -19 -2 -12 -5z"/>
<path d="M6593 33 c9 -2 23 -2 30 0 6 3 -1 5 -18 5 -16 0 -22 -2 -12 -5z"/>
<path d="M6683 33 c9 -2 23 -2 30 0 6 3 -1 5 -18 5 -16 0 -22 -2 -12 -5z"/>
<path d="M6768 33 c6 -2 18 -2 25 0 6 3 1 5 -13 5 -14 0 -19 -2 -12 -5z"/>
<path d="M6858 33 c6 -2 18 -2 25 0 6 3 1 5 -13 5 -14 0 -19 -2 -12 -5z"/>
<path d="M6948 33 c6 -2 18 -2 25 0 6 3 1 5 -13 5 -14 0 -19 -2 -12 -5z"/>
<path d="M7038 33 c6 -2 18 -2 25 0 6 3 1 5 -13 5 -14 0 -19 -2 -12 -5z"/>
<path d="M7128 33 c6 -2 18 -2 25 0 6 3 1 5 -13 5 -14 0 -19 -2 -12 -5z"/>
<path d="M7218 33 c6 -2 18 -2 25 0 6 3 1 5 -13 5 -14 0 -19 -2 -12 -5z"/>
<path d="M7308 33 c6 -2 18 -2 25 0 6 3 1 5 -13 5 -14 0 -19 -2 -12 -5z"/>
<path d="M7398 33 c6 -2 18 -2 25 0 6 3 1 5 -13 5 -14 0 -19 -2 -12 -5z"/>
<path d="M7488 33 c6 -2 18 -2 25 0 6 3 1 5 -13 5 -14 0 -19 -2 -12 -5z"/>
<path d="M7573 33 c9 -2 23 -2 30 0 6 3 -1 5 -18 5 -16 0 -22 -2 -12 -5z"/>
<path d="M7663 33 c9 -2 23 -2 30 0 6 3 -1 5 -18 5 -16 0 -22 -2 -12 -5z"/>
<path d="M7748 33 c6 -2 18 -2 25 0 6 3 1 5 -13 5 -14 0 -19 -2 -12 -5z"/>
<path d="M7838 33 c6 -2 18 -2 25 0 6 3 1 5 -13 5 -14 0 -19 -2 -12 -5z"/>
<path d="M8018 33 c6 -2 18 -2 25 0 6 3 1 5 -13 5 -14 0 -19 -2 -12 -5z"/>
<path d="M8108 33 c6 -2 18 -2 25 0 6 3 1 5 -13 5 -14 0 -19 -2 -12 -5z"/>
<path d="M8198 33 c6 -2 18 -2 25 0 6 3 1 5 -13 5 -14 0 -19 -2 -12 -5z"/>
<path d="M8373 33 c9 -2 23 -2 30 0 6 3 -1 5 -18 5 -16 0 -22 -2 -12 -5z"/>
<path d="M8463 33 c9 -2 23 -2 30 0 6 3 -1 5 -18 5 -16 0 -22 -2 -12 -5z"/>
<path d="M8553 33 c9 -2 23 -2 30 0 6 3 -1 5 -18 5 -16 0 -22 -2 -12 -5z"/>
<path d="M8638 33 c6 -2 18 -2 25 0 6 3 1 5 -13 5 -14 0 -19 -2 -12 -5z"/>
<path d="M8728 33 c6 -2 18 -2 25 0 6 3 1 5 -13 5 -14 0 -19 -2 -12 -5z"/>
<path d="M8818 33 c6 -2 18 -2 25 0 6 3 1 5 -13 5 -14 0 -19 -2 -12 -5z"/>
<path d="M8908 33 c6 -2 18 -2 25 0 6 3 1 5 -13 5 -14 0 -19 -2 -12 -5z"/>
<path d="M8998 33 c6 -2 18 -2 25 0 6 3 1 5 -13 5 -14 0 -19 -2 -12 -5z"/>
<path d="M9088 33 c6 -2 18 -2 25 0 6 3 1 5 -13 5 -14 0 -19 -2 -12 -5z"/>
<path d="M9173 33 c9 -2 23 -2 30 0 6 3 -1 5 -18 5 -16 0 -22 -2 -12 -5z"/>
<path d="M9263 33 c9 -2 23 -2 30 0 6 3 -1 5 -18 5 -16 0 -22 -2 -12 -5z"/>
<path d="M9348 33 c6 -2 18 -2 25 0 6 3 1 5 -13 5 -14 0 -19 -2 -12 -5z"/>
<path d="M9438 33 c6 -2 18 -2 25 0 6 3 1 5 -13 5 -14 0 -19 -2 -12 -5z"/>
<path d="M9528 33 c6 -2 18 -2 25 0 6 3 1 5 -13 5 -14 0 -19 -2 -12 -5z"/>
<path d="M9618 33 c6 -2 18 -2 25 0 6 3 1 5 -13 5 -14 0 -19 -2 -12 -5z"/>
<path d="M9708 33 c6 -2 18 -2 25 0 6 3 1 5 -13 5 -14 0 -19 -2 -12 -5z"/>
<path d="M9798 33 c6 -2 18 -2 25 0 6 3 1 5 -13 5 -14 0 -19 -2 -12 -5z"/>
<path d="M9888 33 c6 -2 18 -2 25 0 6 3 1 5 -13 5 -14 0 -19 -2 -12 -5z"/>
<path d="M9978 33 c6 -2 18 -2 25 0 6 3 1 5 -13 5 -14 0 -19 -2 -12 -5z"/>
<path d="M10068 33 c6 -2 18 -2 25 0 6 3 1 5 -13 5 -14 0 -19 -2 -12 -5z"/>
<path d="M10153 33 c9 -2 23 -2 30 0 6 3 -1 5 -18 5 -16 0 -22 -2 -12 -5z"/>
<path d="M10243 33 c9 -2 23 -2 30 0 6 3 -1 5 -18 5 -16 0 -22 -2 -12 -5z"/>
<path d="M10328 33 c6 -2 18 -2 25 0 6 3 1 5 -13 5 -14 0 -19 -2 -12 -5z"/>
<path d="M10418 33 c6 -2 18 -2 25 0 6 3 1 5 -13 5 -14 0 -19 -2 -12 -5z"/>
<path d="M10508 33 c6 -2 18 -2 25 0 6 3 1 5 -13 5 -14 0 -19 -2 -12 -5z"/>
<path d="M10598 33 c6 -2 18 -2 25 0 6 3 1 5 -13 5 -14 0 -19 -2 -12 -5z"/>
<path d="M10688 33 c6 -2 18 -2 25 0 6 3 1 5 -13 5 -14 0 -19 -2 -12 -5z"/>
<path d="M10778 33 c6 -2 18 -2 25 0 6 3 1 5 -13 5 -14 0 -19 -2 -12 -5z"/>
<path d="M10868 33 c6 -2 18 -2 25 0 6 3 1 5 -13 5 -14 0 -19 -2 -12 -5z"/>
<path d="M10958 33 c6 -2 18 -2 25 0 6 3 1 5 -13 5 -14 0 -19 -2 -12 -5z"/>
<path d="M11048 33 c6 -2 18 -2 25 0 6 3 1 5 -13 5 -14 0 -19 -2 -12 -5z"/>
<path d="M11133 33 c9 -2 23 -2 30 0 6 3 -1 5 -18 5 -16 0 -22 -2 -12 -5z"/>
<path d="M11223 33 c9 -2 23 -2 30 0 6 3 -1 5 -18 5 -16 0 -22 -2 -12 -5z"/>
<path d="M11308 33 c6 -2 18 -2 25 0 6 3 1 5 -13 5 -14 0 -19 -2 -12 -5z"/>
<path d="M11398 33 c6 -2 18 -2 25 0 6 3 1 5 -13 5 -14 0 -19 -2 -12 -5z"/>
<path d="M11488 33 c6 -2 18 -2 25 0 6 3 1 5 -13 5 -14 0 -19 -2 -12 -5z"/>
<path d="M11578 33 c6 -2 18 -2 25 0 6 3 1 5 -13 5 -14 0 -19 -2 -12 -5z"/>
<path d="M11668 33 c6 -2 18 -2 25 0 6 3 1 5 -13 5 -14 0 -19 -2 -12 -5z"/>
<path d="M11758 33 c6 -2 18 -2 25 0 6 3 1 5 -13 5 -14 0 -19 -2 -12 -5z"/>
<path d="M11848 33 c6 -2 18 -2 25 0 6 3 1 5 -13 5 -14 0 -19 -2 -12 -5z"/>
<path d="M11933 33 c9 -2 23 -2 30 0 6 3 -1 5 -18 5 -16 0 -22 -2 -12 -5z"/>
<path d="M12023 33 c9 -2 23 -2 30 0 6 3 -1 5 -18 5 -16 0 -22 -2 -12 -5z"/>
<path d="M12113 33 c9 -2 23 -2 30 0 6 3 -1 5 -18 5 -16 0 -22 -2 -12 -5z"/>
<path d="M12198 33 c6 -2 18 -2 25 0 6 3 1 5 -13 5 -14 0 -19 -2 -12 -5z"/>
<path d="M12288 33 c6 -2 18 -2 25 0 6 3 1 5 -13 5 -14 0 -19 -2 -12 -5z"/>
<path d="M12378 33 c6 -2 18 -2 25 0 6 3 1 5 -13 5 -14 0 -19 -2 -12 -5z"/>
<path d="M12468 33 c6 -2 18 -2 25 0 6 3 1 5 -13 5 -14 0 -19 -2 -12 -5z"/>
<path d="M12558 33 c6 -2 18 -2 25 0 6 3 1 5 -13 5 -14 0 -19 -2 -12 -5z"/>
<path d="M12648 33 c6 -2 18 -2 25 0 6 3 1 5 -13 5 -14 0 -19 -2 -12 -5z"/>
<path d="M12733 33 c9 -2 23 -2 30 0 6 3 -1 5 -18 5 -16 0 -22 -2 -12 -5z"/>
<path d="M12823 33 c9 -2 23 -2 30 0 6 3 -1 5 -18 5 -16 0 -22 -2 -12 -5z"/>
<path d="M12913 33 c9 -2 23 -2 30 0 6 3 -1 5 -18 5 -16 0 -22 -2 -12 -5z"/>
<path d="M12998 33 c6 -2 18 -2 25 0 6 3 1 5 -13 5 -14 0 -19 -2 -12 -5z"/>
<path d="M13088 33 c6 -2 18 -2 25 0 6 3 1 5 -13 5 -14 0 -19 -2 -12 -5z"/>
<path d="M13178 33 c6 -2 18 -2 25 0 6 3 1 5 -13 5 -14 0 -19 -2 -12 -5z"/>
<path d="M13268 33 c6 -2 18 -2 25 0 6 3 1 5 -13 5 -14 0 -19 -2 -12 -5z"/>
<path d="M13358 33 c6 -2 18 -2 25 0 6 3 1 5 -13 5 -14 0 -19 -2 -12 -5z"/>
<path d="M13448 33 c6 -2 18 -2 25 0 6 3 1 5 -13 5 -14 0 -19 -2 -12 -5z"/>
<path d="M13538 33 c6 -2 18 -2 25 0 6 3 1 5 -13 5 -14 0 -19 -2 -12 -5z"/>
<path d="M13628 33 c6 -2 18 -2 25 0 6 3 1 5 -13 5 -14 0 -19 -2 -12 -5z"/>
<path d="M13713 33 c9 -2 23 -2 30 0 6 3 -1 5 -18 5 -16 0 -22 -2 -12 -5z"/>
<path d="M13803 33 c9 -2 23 -2 30 0 6 3 -1 5 -18 5 -16 0 -22 -2 -12 -5z"/>
<path d="M13888 33 c6 -2 18 -2 25 0 6 3 1 5 -13 5 -14 0 -19 -2 -12 -5z"/>
<path d="M13978 33 c6 -2 18 -2 25 0 6 3 1 5 -13 5 -14 0 -19 -2 -12 -5z"/>
<path d="M14068 33 c6 -2 18 -2 25 0 6 3 1 5 -13 5 -14 0 -19 -2 -12 -5z"/>
<path d="M14158 33 c6 -2 18 -2 25 0 6 3 1 5 -13 5 -14 0 -19 -2 -12 -5z"/>
<path d="M14248 33 c6 -2 18 -2 25 0 6 3 1 5 -13 5 -14 0 -19 -2 -12 -5z"/>
<path d="M14338 33 c6 -2 18 -2 25 0 6 3 1 5 -13 5 -14 0 -19 -2 -12 -5z"/>
<path d="M14428 33 c6 -2 18 -2 25 0 6 3 1 5 -13 5 -14 0 -19 -2 -12 -5z"/>
<path d="M14518 33 c6 -2 18 -2 25 0 6 3 1 5 -13 5 -14 0 -19 -2 -12 -5z"/>
<path d="M14608 33 c6 -2 18 -2 25 0 6 3 1 5 -13 5 -14 0 -19 -2 -12 -5z"/>
<path d="M14693 33 c9 -2 23 -2 30 0 6 3 -1 5 -18 5 -16 0 -22 -2 -12 -5z"/>
<path d="M14783 33 c9 -2 23 -2 30 0 6 3 -1 5 -18 5 -16 0 -22 -2 -12 -5z"/>
<path d="M14868 33 c6 -2 18 -2 25 0 6 3 1 5 -13 5 -14 0 -19 -2 -12 -5z"/>
<path d="M14958 33 c6 -2 18 -2 25 0 6 3 1 5 -13 5 -14 0 -19 -2 -12 -5z"/>
<path d="M15048 33 c6 -2 18 -2 25 0 6 3 1 5 -13 5 -14 0 -19 -2 -12 -5z"/>
</g>
</svg>
