<?xml version="1.0" standalone="no"?>
<!DOCTYPE svg PUBLIC "-//W3C//DTD SVG 20010904//EN"
 "http://www.w3.org/TR/2001/REC-SVG-20010904/DTD/svg10.dtd">
<svg version="1.0" xmlns="http://www.w3.org/2000/svg"
 width="1275.000000pt" height="1651.000000pt" viewBox="0 0 1275.000000 1651.000000"
 preserveAspectRatio="xMidYMid meet">
<metadata>
Created by potrace 1.16, written by Peter Selinger 2001-2019
</metadata>
<g transform="translate(0.000000,1651.000000) scale(0.100000,-0.100000)"
fill="#000000" stroke="none">
<path d="M4980 14367 c0 -42 -1 -43 -29 -39 -16 2 -38 -1 -49 -7 -30 -16 -44
-74 -29 -118 16 -49 38 -61 79 -45 21 8 34 9 36 2 2 -5 12 -10 23 -10 18 0 19
9 19 130 l0 130 -25 0 c-23 0 -25 -4 -25 -43z m-2 -124 c3 -45 0 -52 -18 -58
-30 -10 -50 12 -50 54 0 42 16 63 45 59 17 -3 21 -12 23 -55z"/>
<path d="M5875 14385 c-14 -13 -25 -31 -25 -40 0 -8 -4 -15 -10 -15 -5 0 -10
-7 -10 -15 0 -8 5 -15 10 -15 6 0 10 -32 10 -75 0 -68 2 -75 20 -75 17 0 19 8
22 73 3 66 5 72 26 75 31 5 28 32 -4 32 -32 0 -30 30 4 45 12 5 22 15 22 22 0
22 -39 14 -65 -12z"/>
<path d="M8000 14390 c-11 -11 -20 -29 -20 -40 0 -11 -4 -20 -10 -20 -5 0 -10
-7 -10 -15 0 -8 5 -15 10 -15 6 0 10 -32 10 -75 0 -68 2 -75 20 -75 18 0 20 7
20 75 0 68 2 75 20 75 11 0 20 7 20 15 0 8 -9 15 -20 15 -11 0 -20 7 -20 15 0
8 9 20 20 27 11 7 20 18 20 25 0 20 -38 15 -60 -7z"/>
<path d="M9044 14396 c-8 -21 3 -36 27 -36 15 0 20 6 17 22 -4 27 -35 37 -44
14z"/>
<path d="M2774 14356 c-30 -30 -34 -40 -34 -84 0 -40 6 -57 26 -81 27 -32 76
-48 117 -37 61 15 99 95 77 161 -16 49 -53 75 -107 75 -38 0 -50 -5 -79 -34z
m120 -17 c21 -16 26 -29 26 -63 0 -56 -22 -86 -63 -86 -38 0 -50 7 -66 37 -19
36 -13 82 14 108 30 30 54 31 89 4z"/>
<path d="M3350 14370 c-21 -21 -26 -55 -11 -79 5 -8 29 -24 52 -35 24 -12 45
-26 46 -32 6 -17 -27 -46 -44 -40 -8 4 -26 9 -40 12 -21 6 -24 3 -21 -12 4
-25 68 -42 102 -26 29 13 46 58 35 90 -5 14 -27 31 -54 43 -47 21 -56 38 -29
60 12 10 22 10 44 2 22 -8 30 -8 34 2 14 37 -79 50 -114 15z"/>
<path d="M4055 14278 c-22 -62 -41 -116 -43 -120 -2 -4 6 -8 18 -8 14 0 24 9
31 30 10 28 15 30 58 30 43 0 48 -3 58 -30 7 -20 18 -30 32 -30 19 0 19 4 -14
93 -55 151 -53 147 -77 147 -20 0 -28 -14 -63 -112z m84 18 c15 -59 16 -56
-23 -56 l-34 0 16 50 c9 28 19 50 23 50 4 0 12 -20 18 -44z"/>
<path d="M4340 14270 c0 -113 1 -120 20 -120 17 0 20 7 20 45 l0 45 40 0 c50
0 80 27 80 73 0 56 -30 77 -109 77 l-51 0 0 -120z m108 78 c7 -7 12 -21 12
-33 0 -29 -19 -45 -52 -45 -27 0 -28 2 -28 45 0 43 1 45 28 45 15 0 33 -5 40
-12z"/>
<path d="M6060 14270 c0 -99 3 -120 15 -120 11 0 15 19 17 88 l3 87 43 -72
c24 -40 48 -73 55 -73 7 0 30 33 52 73 l40 72 3 -87 c3 -80 5 -88 22 -88 19 0
20 7 20 120 l0 120 -24 0 c-21 0 -32 -14 -69 -81 l-44 -81 -47 81 c-33 58 -52
81 -66 81 -19 0 -20 -7 -20 -120z"/>
<path d="M7680 14270 c0 -113 1 -120 20 -120 19 0 20 7 20 120 0 113 -1 120
-20 120 -19 0 -20 -7 -20 -120z"/>
<path d="M9530 14270 l0 -120 60 0 c53 0 60 2 60 20 0 17 -7 20 -40 20 l-40 0
0 100 c0 93 -1 100 -20 100 -19 0 -20 -7 -20 -120z"/>
<path d="M9680 14270 l0 -120 65 0 c58 0 65 2 65 20 0 17 -7 20 -40 20 l-40 0
0 100 0 100 -25 0 -25 0 0 -120z"/>
<path d="M9840 14270 l0 -120 25 0 c23 0 25 4 25 45 0 44 0 45 34 45 49 0 80
29 80 75 0 54 -29 75 -105 75 l-59 0 0 -120z m108 78 c17 -17 15 -65 -4 -72
-42 -16 -54 -8 -54 39 0 40 2 45 23 45 13 0 28 -5 35 -12z"/>
<path d="M5450 14365 c0 -8 -9 -23 -20 -32 -24 -21 -26 -33 -5 -33 12 0 15
-14 15 -63 0 -36 5 -68 12 -75 14 -14 47 -15 68 -2 11 7 9 11 -13 19 -25 10
-27 15 -27 66 0 48 2 55 20 55 11 0 20 7 20 15 0 8 -9 15 -20 15 -15 0 -20 7
-20 25 0 16 -6 25 -15 25 -8 0 -15 -7 -15 -15z"/>
<path d="M7297 14373 c-4 -3 -7 -13 -7 -21 0 -8 -8 -21 -17 -28 -13 -9 -15
-16 -7 -21 6 -5 13 -36 16 -71 3 -40 10 -67 19 -73 21 -14 64 -6 64 11 0 9 -7
14 -17 12 -20 -3 -31 29 -26 79 2 26 8 35 26 37 12 2 22 10 22 17 0 7 -10 15
-22 17 -15 2 -24 11 -26 26 -3 22 -13 28 -25 15z"/>
<path d="M8937 14373 c-4 -3 -7 -13 -7 -21 0 -8 -8 -21 -17 -28 -13 -9 -15
-16 -7 -21 6 -5 13 -36 16 -71 3 -40 10 -67 19 -73 21 -14 64 -6 64 11 0 9 -7
14 -17 12 -20 -3 -31 29 -26 79 3 32 5 34 46 37 l42 3 0 -75 c0 -69 2 -76 20
-76 19 0 20 7 20 90 l0 90 -65 0 c-63 0 -65 1 -65 25 0 24 -10 32 -23 18z"/>
<path d="M3000 14262 c0 -99 32 -133 93 -101 16 9 22 9 25 0 2 -6 10 -11 18
-11 11 0 14 19 14 90 0 83 -1 90 -20 90 -18 0 -20 -7 -20 -69 0 -61 -2 -70
-20 -76 -36 -11 -50 12 -50 81 0 57 -2 64 -20 64 -18 0 -20 -7 -20 -68z"/>
<path d="M3200 14240 c0 -83 1 -90 20 -90 18 0 20 7 20 58 0 60 11 82 42 82
11 0 18 7 18 20 0 24 -17 26 -42 3 -17 -15 -18 -15 -18 0 0 10 -8 17 -20 17
-19 0 -20 -7 -20 -90z"/>
<path d="M3500 14321 c0 -4 14 -41 31 -82 29 -71 29 -75 15 -107 -20 -41 -20
-42 3 -42 19 0 31 27 108 228 3 7 -3 12 -15 12 -17 0 -25 -12 -38 -55 -10 -30
-21 -55 -24 -55 -3 0 -14 25 -24 55 -13 42 -22 55 -37 55 -10 0 -19 -4 -19 -9z"/>
<path d="M3701 14316 c-23 -28 -9 -70 29 -87 47 -23 46 -44 -2 -44 -21 0 -39
-4 -40 -10 -3 -17 49 -30 80 -19 21 7 28 16 30 44 2 31 -1 37 -34 55 -42 23
-42 40 -2 41 34 0 47 12 28 24 -23 15 -76 12 -89 -4z"/>
<path d="M4540 14240 c0 -83 2 -90 20 -90 17 0 19 8 22 68 3 65 4 67 31 70 19
2 27 9 27 23 0 22 -29 26 -49 7 -11 -10 -14 -10 -18 0 -3 6 -11 12 -19 12 -11
0 -14 -19 -14 -90z"/>
<path d="M4702 14323 c-16 -6 -42 -56 -42 -82 0 -76 84 -117 144 -70 22 17 26
28 26 69 0 41 -4 52 -26 69 -25 20 -72 26 -102 14z m77 -37 c17 -21 10 -87
-11 -100 -38 -23 -78 37 -59 87 12 30 50 37 70 13z"/>
<path d="M5070 14260 c0 -57 4 -74 20 -90 23 -23 60 -26 79 -7 11 10 14 10 18
0 3 -7 13 -13 24 -13 17 0 19 8 19 90 0 89 0 90 -25 90 -24 0 -25 -2 -25 -69
0 -61 -2 -70 -20 -76 -36 -11 -50 12 -50 81 0 57 -2 64 -20 64 -18 0 -20 -7
-20 -70z"/>
<path d="M5290 14310 c-30 -30 -28 -109 3 -138 26 -25 64 -28 92 -9 25 19 11
41 -15 24 -30 -18 -54 2 -58 47 -4 47 13 69 49 62 32 -6 43 2 28 21 -17 20
-76 16 -99 -7z"/>
<path d="M5663 14304 c-22 -22 -25 -32 -20 -71 6 -55 22 -73 75 -80 55 -7 92
27 92 87 0 82 -89 121 -147 64z m101 -36 c13 -37 -3 -82 -30 -86 -44 -6 -69
52 -43 99 16 30 61 22 73 -13z"/>
<path d="M6393 14304 c-22 -22 -25 -32 -20 -71 6 -55 22 -73 75 -80 55 -7 92
27 92 87 0 82 -89 121 -147 64z m101 -36 c13 -37 -3 -82 -30 -86 -44 -6 -69
52 -43 99 16 30 61 22 73 -13z"/>
<path d="M6580 14240 c0 -83 1 -90 20 -90 18 0 20 7 20 70 0 65 1 70 24 76 39
9 46 -2 46 -77 0 -62 2 -69 20 -69 18 0 20 7 20 59 0 72 6 91 31 91 26 0 39
-30 39 -94 0 -49 2 -56 20 -56 18 0 20 7 20 63 0 81 -15 111 -59 115 -20 2
-40 -3 -51 -13 -16 -14 -18 -14 -23 0 -7 17 -58 20 -74 4 -8 -8 -13 -8 -17 0
-4 6 -14 11 -22 11 -11 0 -14 -18 -14 -90z"/>
<path d="M6901 14306 c-43 -46 -22 -138 35 -152 34 -9 89 8 89 26 0 8 -7 13
-15 11 -47 -12 -62 -12 -75 -1 -8 7 -15 21 -15 31 0 16 8 19 55 19 52 0 55 1
55 25 0 61 -85 88 -129 41z m87 -18 c21 -21 13 -28 -28 -28 -38 0 -52 14 -33
33 11 11 48 8 61 -5z"/>
<path d="M7080 14240 c0 -83 2 -90 20 -90 17 0 19 8 22 73 3 67 5 72 27 75 32
5 41 -12 41 -85 0 -56 2 -63 20 -63 18 0 20 7 20 68 0 45 -5 75 -16 90 -16 24
-53 29 -85 12 -13 -7 -19 -7 -19 0 0 5 -7 10 -15 10 -12 0 -15 -17 -15 -90z"/>
<path d="M7428 14319 c-31 -17 -20 -29 25 -27 36 3 42 0 45 -18 3 -18 -4 -22
-36 -28 -45 -7 -65 -25 -60 -57 5 -34 31 -46 70 -31 21 8 36 8 42 2 21 -21 26
-8 26 63 0 59 -4 77 -18 90 -21 19 -68 22 -94 6z m70 -111 c-4 -31 -58 -40
-58 -9 0 20 12 29 43 30 14 1 18 -5 15 -21z"/>
<path d="M7770 14240 c0 -83 1 -90 20 -90 18 0 20 7 20 63 0 65 11 87 42 87
25 0 38 -31 38 -94 0 -49 2 -56 20 -56 18 0 20 7 20 63 0 34 -6 73 -13 87 -14
28 -54 38 -87 20 -13 -7 -20 -7 -20 0 0 5 -9 10 -20 10 -19 0 -20 -7 -20 -90z"/>
<path d="M8122 14323 c-16 -6 -42 -56 -42 -82 0 -76 84 -117 144 -70 22 17 26
28 26 69 0 41 -4 52 -26 69 -25 20 -72 26 -102 14z m77 -37 c17 -21 10 -87
-11 -100 -38 -23 -78 37 -59 87 12 30 50 37 70 13z"/>
<path d="M8290 14240 c0 -83 1 -90 20 -90 18 0 20 7 20 58 0 60 11 82 42 82
11 0 18 7 18 20 0 24 -17 26 -42 3 -17 -15 -18 -15 -18 0 0 10 -8 17 -20 17
-19 0 -20 -7 -20 -90z"/>
<path d="M8430 14240 c0 -83 1 -90 20 -90 18 0 20 7 20 70 0 56 3 72 16 77 34
13 49 -11 52 -81 3 -57 5 -66 22 -66 17 0 19 9 22 73 3 69 4 72 28 72 24 0 25
-3 28 -72 3 -65 5 -73 22 -73 18 0 20 7 20 80 0 68 -3 81 -19 90 -28 15 -67
12 -81 -5 -12 -14 -15 -14 -30 0 -19 17 -56 20 -66 4 -4 -8 -9 -8 -17 0 -29
29 -37 11 -37 -79z"/>
<path d="M8744 14315 c-21 -16 -17 -18 41 -19 34 -1 41 -5 43 -23 3 -20 -1
-23 -27 -23 -17 0 -41 -10 -55 -22 -50 -44 -1 -97 62 -68 18 8 28 8 30 1 2 -6
10 -11 18 -11 21 0 19 128 -2 158 -18 26 -79 30 -110 7z m84 -107 c-3 -26 -43
-37 -62 -18 -8 8 -6 15 8 26 31 22 58 18 54 -8z"/>
<path d="M9151 14311 c-28 -28 -35 -73 -17 -115 16 -40 52 -55 94 -40 34 12
29 30 -7 27 -38 -4 -53 17 -49 69 3 42 4 43 38 44 52 2 54 3 40 19 -18 21 -76
19 -99 -4z"/>
<path d="M9301 14316 c-23 -28 -9 -70 29 -87 47 -23 46 -44 -2 -44 -21 0 -39
-4 -40 -10 -3 -17 49 -30 80 -19 21 7 28 16 30 44 2 31 -1 37 -34 55 -42 23
-42 40 -2 41 34 0 47 12 28 24 -23 15 -76 12 -89 -4z"/>
<path d="M3850 14300 c0 -13 7 -20 20 -20 13 0 20 7 20 20 0 13 -7 20 -20 20
-13 0 -20 -7 -20 -20z"/>
<path d="M3847 14187 c-3 -8 -2 -20 3 -27 11 -18 42 -4 38 17 -4 22 -34 29
-41 10z"/>
<path d="M2826 13734 c-9 -8 -16 -23 -17 -32 -6 -122 -5 -132 21 -132 19 0 21
3 12 12 -18 18 -16 88 3 88 8 0 15 5 15 10 0 6 -7 10 -15 10 -8 0 -15 8 -15
18 0 26 11 34 27 20 15 -12 28 -5 18 11 -9 16 -31 13 -49 -5z"/>
<path d="M1508 13728 c16 -16 16 -145 0 -151 -7 -3 3 -5 22 -5 19 0 29 2 23 5
-9 3 -13 25 -13 61 l1 57 26 -62 c14 -35 29 -63 33 -63 4 0 18 28 31 63 l24
62 3 -54 c2 -37 -1 -57 -10 -62 -8 -6 0 -8 22 -8 19 0 29 3 23 6 -9 3 -13 27
-13 72 0 40 5 72 13 80 10 10 7 12 -13 9 -20 -2 -29 -15 -49 -66 -13 -34 -27
-59 -31 -55 -4 4 -18 34 -30 66 -20 48 -28 57 -49 57 -19 0 -22 -3 -13 -12z"/>
<path d="M2588 13728 c7 -7 12 -39 12 -75 0 -48 -4 -64 -17 -72 -14 -8 -10
-10 22 -10 22 0 34 3 28 6 -17 6 -17 135 -1 151 9 9 4 12 -22 12 -26 0 -31 -3
-22 -12z"/>
<path d="M3878 13728 c16 -16 16 -145 0 -151 -7 -3 13 -6 45 -6 52 -1 57 1 57
21 0 20 -1 21 -13 4 -7 -10 -22 -17 -33 -14 -16 3 -19 13 -22 66 -2 39 2 69 9
78 9 12 6 14 -22 14 -26 0 -30 -3 -21 -12z"/>
<path d="M4008 13728 c16 -16 16 -145 0 -151 -7 -3 13 -6 45 -6 53 -1 57 1 57
22 -1 20 -2 20 -11 5 -5 -10 -19 -18 -29 -18 -18 0 -20 7 -20 68 0 40 5 73 12
80 9 9 3 12 -27 12 -30 0 -36 -3 -27 -12z"/>
<path d="M4138 13729 c7 -8 12 -40 12 -80 0 -45 -4 -69 -12 -72 -7 -3 5 -5 27
-5 22 0 34 2 28 5 -7 2 -13 17 -13 31 0 21 8 31 33 42 33 15 44 44 28 69 -5 8
-32 16 -62 19 -45 3 -52 2 -41 -9z m76 -12 c23 -17 14 -53 -14 -60 -17 -4 -20
0 -20 34 0 42 6 46 34 26z"/>
<path d="M3540 13720 c0 -5 5 -10 10 -10 6 0 10 5 10 10 0 6 -4 10 -10 10 -5
0 -10 -4 -10 -10z"/>
<path d="M2326 13691 c-11 -12 -14 -21 -8 -21 6 0 12 -21 14 -47 3 -43 6 -48
28 -50 14 -1 18 0 8 3 -24 7 -26 94 -3 94 8 0 15 5 15 10 0 6 -6 10 -14 10 -8
0 -16 5 -18 11 -2 6 -12 1 -22 -10z"/>
<path d="M3454 13697 c-10 -12 -10 -49 2 -104 3 -18 11 -23 32 -22 17 1 20 3
10 6 -14 3 -18 15 -18 48 0 26 5 45 12 47 9 3 8 9 -4 21 -20 20 -20 20 -34 4z"/>
<path d="M1738 13679 c-12 -7 -18 -22 -18 -47 0 -45 14 -62 50 -62 35 0 50 17
50 56 0 53 -39 78 -82 53z m50 -11 c14 -14 16 -57 3 -76 -5 -8 -17 -12 -27
-10 -23 4 -32 62 -13 84 14 17 21 18 37 2z"/>
<path d="M1859 13686 c0 -1 -1 -27 -2 -59 -2 -51 0 -57 18 -57 17 0 20 7 20
52 0 40 4 53 15 53 11 0 15 -13 15 -53 0 -49 2 -52 25 -52 19 0 21 3 12 12
-28 28 -3 112 28 93 14 -9 13 -92 -2 -98 -7 -3 3 -5 22 -5 19 0 29 2 23 5 -8
3 -13 23 -13 48 0 24 -6 47 -12 52 -9 6 -143 13 -149 9z"/>
<path d="M2077 13672 c-19 -21 -22 -54 -7 -83 12 -21 64 -27 76 -8 4 8 -1 9
-15 4 -24 -7 -51 9 -51 31 0 10 13 14 40 14 44 0 52 16 24 44 -21 21 -47 20
-67 -2z m51 -15 c3 -12 -4 -17 -22 -17 -28 0 -33 9 -14 28 15 15 32 10 36 -11z"/>
<path d="M2189 13686 c0 -1 -1 -27 -2 -59 -2 -54 -1 -57 23 -57 19 0 21 3 12
12 -17 17 -15 73 3 88 24 20 38 -2 34 -54 -4 -43 -2 -46 20 -46 18 0 21 3 13
13 -6 7 -12 33 -14 57 l-3 45 -42 1 c-24 0 -43 0 -44 0z"/>
<path d="M2411 13677 c-6 -8 -8 -17 -4 -20 11 -12 23 -7 23 9 0 9 7 14 18 12
25 -5 22 -42 -5 -46 -27 -4 -47 -27 -40 -46 4 -11 21 -15 59 -14 29 0 47 3 41
5 -8 3 -13 22 -13 47 0 23 -5 47 -12 54 -16 16 -53 15 -67 -1z m59 -72 c0 -9
-7 -18 -16 -22 -18 -7 -39 11 -30 26 11 17 46 13 46 -4z"/>
<path d="M2669 13686 c0 -1 -1 -27 -2 -59 -2 -54 -1 -57 23 -57 19 0 21 3 12
12 -17 17 -15 73 3 88 24 20 38 -2 34 -54 -4 -43 -2 -46 20 -46 18 0 21 3 13
13 -6 7 -12 33 -14 57 l-3 45 -42 1 c-24 0 -43 0 -44 0z"/>
<path d="M2898 13679 c-12 -7 -18 -22 -18 -47 0 -45 14 -62 50 -62 35 0 50 17
50 56 0 53 -39 78 -82 53z m50 -11 c14 -14 16 -57 3 -76 -5 -8 -17 -12 -27
-10 -23 4 -32 62 -13 84 14 17 21 18 37 2z"/>
<path d="M3019 13686 c0 -1 -1 -27 -2 -59 -2 -51 0 -57 18 -57 18 0 20 5 17
50 -4 49 3 61 25 39 12 -12 28 5 19 20 -4 6 -70 12 -77 7z"/>
<path d="M3119 13679 c-10 -6 -11 -9 -1 -9 8 0 12 -16 12 -44 0 -26 -5 -46
-12 -49 -7 -3 3 -5 22 -5 19 0 29 2 23 5 -18 7 -17 89 1 96 7 3 19 0 25 -6 15
-15 14 -70 -1 -85 -9 -9 -7 -12 12 -12 23 0 25 3 25 52 0 40 4 53 15 53 11 0
15 -13 15 -53 0 -49 2 -52 25 -52 19 0 21 3 12 12 -7 7 -12 31 -12 55 0 24 -3
44 -7 44 -36 6 -144 5 -154 -2z"/>
<path d="M3333 13683 c-18 -7 -16 -33 2 -33 8 0 14 6 13 13 -2 6 4 12 12 12 8
0 16 -10 18 -22 3 -17 -2 -22 -25 -25 -22 -2 -28 -8 -28 -28 0 -23 4 -25 49
-27 36 -1 46 1 37 10 -6 6 -11 30 -11 53 0 49 -23 65 -67 47z m47 -78 c0 -16
-27 -32 -37 -22 -3 4 -3 13 0 22 8 20 37 20 37 0z"/>
<path d="M3530 13680 c-10 -6 -11 -10 -2 -10 8 0 12 -16 12 -44 0 -26 -5 -46
-12 -49 -7 -3 3 -5 22 -5 19 0 29 2 23 5 -8 3 -13 25 -13 59 0 55 -4 61 -30
44z"/>
<path d="M3605 13666 c-18 -27 -14 -74 8 -88 16 -10 55 -10 61 0 2 4 -8 8 -22
7 -25 0 -27 3 -27 45 0 35 4 45 18 48 10 2 17 -3 17 -12 0 -9 5 -16 11 -16 6
0 9 8 7 18 -5 29 -54 28 -73 -2z"/>
<path d="M3723 13684 c-25 -11 -14 -51 17 -64 33 -14 38 -27 14 -37 -11 -4
-22 1 -30 12 -13 18 -14 18 -14 -3 0 -17 6 -22 28 -22 55 0 69 41 22 65 -31
16 -41 45 -15 45 7 0 19 -8 25 -17 10 -16 10 -16 8 2 -3 20 -31 29 -55 19z"/>
<path d="M2350 13165 c0 -75 4 -114 10 -110 6 3 10 52 10 110 0 58 -4 107 -10
110 -6 4 -10 -35 -10 -110z"/>
<path d="M1518 13249 c7 -8 12 -40 12 -80 0 -45 -4 -69 -12 -72 -7 -3 5 -5 27
-5 22 0 34 2 28 5 -7 2 -13 17 -13 31 0 21 8 31 33 42 33 15 44 44 28 69 -5 8
-32 16 -62 19 -45 3 -52 2 -41 -9z m76 -12 c23 -17 14 -53 -14 -60 -17 -4 -20
0 -20 34 0 42 6 46 34 26z"/>
<path d="M2485 13246 c-12 -8 -16 -19 -11 -31 7 -18 21 -13 21 8 0 7 10 13 23
15 37 6 30 -49 -13 -97 -19 -21 -35 -41 -35 -45 0 -3 23 -6 50 -6 28 0 50 5
50 10 0 6 -16 10 -36 10 l-37 0 28 28 c25 25 45 61 45 82 0 15 -31 40 -49 40
-9 0 -26 -6 -36 -14z"/>
<path d="M2626 13244 c-9 -8 -14 -20 -11 -25 9 -14 25 -11 25 6 0 8 9 15 20
15 29 0 27 -44 -2 -58 -17 -8 -18 -11 -7 -11 27 -1 42 -27 29 -50 -14 -28 -38
-27 -49 2 -8 20 -10 21 -16 3 -5 -11 -3 -21 6 -27 49 -31 116 25 75 63 -11 11
-11 16 2 36 13 20 13 24 -3 42 -22 24 -48 26 -69 4z"/>
<path d="M2816 13244 c-9 -8 -14 -20 -11 -25 9 -14 25 -11 25 6 0 8 9 15 20
15 29 0 27 -44 -2 -58 -17 -8 -18 -11 -7 -11 27 -1 42 -27 29 -50 -14 -28 -38
-27 -49 2 -8 20 -10 21 -16 3 -5 -11 -3 -21 6 -27 49 -31 116 25 75 63 -11 11
-11 16 2 36 13 20 13 24 -3 42 -22 24 -48 26 -69 4z"/>
<path d="M2950 13216 c0 -42 2 -45 26 -43 33 3 54 -25 38 -50 -17 -27 -43 -28
-53 -1 -8 21 -10 21 -16 4 -9 -22 8 -36 45 -36 33 0 50 17 50 50 0 34 -17 50
-52 50 -23 0 -28 4 -28 25 0 22 4 25 35 25 19 0 35 5 35 10 0 6 -18 10 -40 10
l-40 0 0 -44z"/>
<path d="M3146 13247 c-26 -19 -33 -99 -12 -132 29 -44 80 -31 96 24 12 43 2
88 -24 106 -25 18 -37 19 -60 2z m59 -71 c0 -45 -4 -61 -17 -70 -24 -15 -38 2
-45 51 -7 51 11 85 40 81 20 -3 22 -9 22 -62z"/>
<path d="M3280 13240 c-27 -27 -28 -110 -2 -133 45 -41 92 -7 92 66 0 49 -24
87 -55 87 -8 0 -24 -9 -35 -20z m66 -25 c18 -70 -20 -144 -52 -101 -19 26 -18
100 1 120 20 19 43 10 51 -19z"/>
<path d="M1900 13240 c0 -5 7 -10 15 -10 8 0 15 5 15 10 0 6 -7 10 -15 10 -8
0 -15 -4 -15 -10z"/>
<path d="M2196 13211 c-11 -12 -14 -21 -8 -21 6 0 12 -21 14 -47 3 -43 6 -48
28 -50 14 -1 18 0 8 3 -24 7 -26 94 -3 94 8 0 15 5 15 10 0 6 -6 10 -14 10 -8
0 -16 5 -18 11 -2 6 -12 1 -22 -10z"/>
<path d="M1669 13203 c0 -5 0 -28 1 -52 1 -27 -3 -47 -12 -52 -8 -6 -2 -9 21
-9 29 0 32 2 21 15 -7 9 -10 29 -8 48 3 17 3 38 1 45 -5 13 -22 17 -24 5z"/>
<path d="M1707 13204 c-6 -6 16 -34 27 -34 3 0 6 9 6 20 0 19 -20 27 -33 14z"/>
<path d="M1776 13194 c-19 -18 -21 -75 -4 -92 7 -7 24 -12 38 -12 36 0 50 17
50 62 0 53 -49 78 -84 42z m52 -3 c21 -13 12 -85 -12 -89 -10 -2 -22 2 -27 10
-13 19 -11 62 3 76 14 14 19 15 36 3z"/>
<path d="M1899 13205 c-3 -2 -2 -37 2 -77 6 -67 2 -100 -8 -70 -6 17 -23 15
-23 -3 0 -9 9 -15 25 -15 25 0 25 1 25 85 0 75 -6 96 -21 80z"/>
<path d="M1977 13192 c-19 -21 -22 -54 -7 -83 12 -21 64 -27 76 -8 4 8 -1 9
-15 4 -24 -7 -51 9 -51 31 0 10 13 14 40 14 44 0 52 16 24 44 -21 21 -47 20
-67 -2z m51 -15 c3 -12 -4 -17 -22 -17 -28 0 -33 9 -14 28 15 15 32 10 36 -11z"/>
<path d="M2096 13194 c-19 -18 -21 -75 -4 -92 15 -15 64 -16 73 -2 4 7 -3 8
-20 4 -18 -4 -30 -2 -36 7 -14 22 -10 65 7 80 14 11 18 11 29 -4 15 -21 25
-22 25 -3 0 27 -50 34 -74 10z"/>
<path d="M2745 13109 c-10 -15 3 -25 16 -12 7 7 7 13 1 17 -6 3 -14 1 -17 -5z"/>
<path d="M3070 13105 c0 -8 5 -15 10 -15 6 0 10 7 10 15 0 8 -4 15 -10 15 -5
0 -10 -7 -10 -15z"/>
<path d="M2826 12774 c-9 -8 -16 -23 -17 -32 -6 -122 -5 -132 21 -132 19 0 21
3 12 12 -18 18 -16 88 3 88 8 0 15 5 15 10 0 6 -7 10 -15 10 -8 0 -15 8 -15
18 0 26 11 34 27 20 15 -12 28 -5 18 11 -9 16 -31 13 -49 -5z"/>
<path d="M1508 12768 c16 -16 16 -145 0 -151 -7 -3 3 -5 22 -5 19 0 29 2 23 5
-9 3 -13 25 -13 61 l1 57 26 -62 c14 -35 29 -63 33 -63 4 0 18 28 31 63 l24
62 3 -54 c2 -37 -1 -57 -10 -62 -8 -6 0 -8 22 -8 19 0 29 3 23 6 -9 3 -13 27
-13 72 0 40 5 72 13 80 10 10 7 12 -13 9 -20 -2 -29 -15 -49 -66 -13 -34 -27
-59 -31 -55 -4 4 -18 34 -30 66 -20 48 -28 57 -49 57 -19 0 -22 -3 -13 -12z"/>
<path d="M2588 12768 c7 -7 12 -39 12 -75 0 -48 -4 -64 -17 -72 -14 -8 -10
-10 22 -10 22 0 34 3 28 6 -17 6 -17 135 -1 151 9 9 4 12 -22 12 -26 0 -31 -3
-22 -12z"/>
<path d="M3878 12768 c16 -16 16 -145 0 -151 -7 -3 13 -6 45 -6 52 -1 57 1 57
21 0 20 -1 21 -13 4 -7 -10 -22 -17 -33 -14 -16 3 -19 13 -22 66 -2 39 2 69 9
78 9 12 6 14 -22 14 -26 0 -30 -3 -21 -12z"/>
<path d="M4008 12768 c16 -16 16 -145 0 -151 -7 -3 13 -6 45 -6 53 -1 57 1 57
22 -1 20 -2 20 -11 5 -5 -10 -19 -18 -29 -18 -18 0 -20 7 -20 68 0 40 5 73 12
80 9 9 3 12 -27 12 -30 0 -36 -3 -27 -12z"/>
<path d="M4138 12769 c7 -8 12 -40 12 -80 0 -45 -4 -69 -12 -72 -7 -3 5 -5 27
-5 22 0 34 2 28 5 -7 2 -13 17 -13 31 0 21 8 31 33 42 33 15 44 44 28 69 -5 8
-32 16 -62 19 -45 3 -52 2 -41 -9z m76 -12 c23 -17 14 -53 -14 -60 -17 -4 -20
0 -20 34 0 42 6 46 34 26z"/>
<path d="M3540 12760 c0 -5 5 -10 10 -10 6 0 10 5 10 10 0 6 -4 10 -10 10 -5
0 -10 -4 -10 -10z"/>
<path d="M2326 12731 c-11 -12 -14 -21 -8 -21 6 0 12 -21 14 -47 3 -43 6 -48
28 -50 14 -1 18 0 8 3 -24 7 -26 94 -3 94 8 0 15 5 15 10 0 6 -6 10 -14 10 -8
0 -16 5 -18 11 -2 6 -12 1 -22 -10z"/>
<path d="M3454 12737 c-10 -12 -10 -49 2 -104 3 -18 11 -23 32 -22 17 1 20 3
10 6 -14 3 -18 15 -18 48 0 26 5 45 12 47 9 3 8 9 -4 21 -20 20 -20 20 -34 4z"/>
<path d="M1738 12719 c-12 -7 -18 -22 -18 -47 0 -45 14 -62 50 -62 35 0 50 17
50 56 0 53 -39 78 -82 53z m50 -11 c14 -14 16 -57 3 -76 -5 -8 -17 -12 -27
-10 -23 4 -32 62 -13 84 14 17 21 18 37 2z"/>
<path d="M1859 12726 c0 -1 -1 -27 -2 -59 -2 -51 0 -57 18 -57 17 0 20 7 20
52 0 40 4 53 15 53 11 0 15 -13 15 -53 0 -49 2 -52 25 -52 19 0 21 3 12 12
-28 28 -3 112 28 93 14 -9 13 -92 -2 -98 -7 -3 3 -5 22 -5 19 0 29 2 23 5 -8
3 -13 23 -13 48 0 24 -6 47 -12 52 -9 6 -143 13 -149 9z"/>
<path d="M2077 12712 c-19 -21 -22 -54 -7 -83 12 -21 64 -27 76 -8 4 8 -1 9
-15 4 -24 -7 -51 9 -51 31 0 10 13 14 40 14 44 0 52 16 24 44 -21 21 -47 20
-67 -2z m51 -15 c3 -12 -4 -17 -22 -17 -28 0 -33 9 -14 28 15 15 32 10 36 -11z"/>
<path d="M2189 12726 c0 -1 -1 -27 -2 -59 -2 -54 -1 -57 23 -57 19 0 21 3 12
12 -17 17 -15 73 3 88 24 20 38 -2 34 -54 -4 -43 -2 -46 20 -46 18 0 21 3 13
13 -6 7 -12 33 -14 57 l-3 45 -42 1 c-24 0 -43 0 -44 0z"/>
<path d="M2411 12717 c-6 -8 -8 -17 -4 -20 11 -12 23 -7 23 9 0 9 7 14 18 12
25 -5 22 -42 -5 -46 -27 -4 -47 -27 -40 -46 4 -11 21 -15 59 -14 29 0 47 3 41
5 -8 3 -13 22 -13 47 0 23 -5 47 -12 54 -16 16 -53 15 -67 -1z m59 -72 c0 -9
-7 -18 -16 -22 -18 -7 -39 11 -30 26 11 17 46 13 46 -4z"/>
<path d="M2669 12726 c0 -1 -1 -27 -2 -59 -2 -54 -1 -57 23 -57 19 0 21 3 12
12 -17 17 -15 73 3 88 24 20 38 -2 34 -54 -4 -43 -2 -46 20 -46 18 0 21 3 13
13 -6 7 -12 33 -14 57 l-3 45 -42 1 c-24 0 -43 0 -44 0z"/>
<path d="M2898 12719 c-12 -7 -18 -22 -18 -47 0 -45 14 -62 50 -62 35 0 50 17
50 56 0 53 -39 78 -82 53z m50 -11 c14 -14 16 -57 3 -76 -5 -8 -17 -12 -27
-10 -23 4 -32 62 -13 84 14 17 21 18 37 2z"/>
<path d="M3019 12726 c0 -1 -1 -27 -2 -59 -2 -51 0 -57 18 -57 18 0 20 5 17
50 -4 49 3 61 25 39 12 -12 28 5 19 20 -4 6 -70 12 -77 7z"/>
<path d="M3119 12719 c-10 -6 -11 -9 -1 -9 8 0 12 -16 12 -44 0 -26 -5 -46
-12 -49 -7 -3 3 -5 22 -5 19 0 29 2 23 5 -18 7 -17 89 1 96 7 3 19 0 25 -6 15
-15 14 -70 -1 -85 -9 -9 -7 -12 12 -12 23 0 25 3 25 52 0 40 4 53 15 53 11 0
15 -13 15 -53 0 -49 2 -52 25 -52 19 0 21 3 12 12 -7 7 -12 31 -12 55 0 24 -3
44 -7 44 -36 6 -144 5 -154 -2z"/>
<path d="M3333 12723 c-18 -7 -16 -33 2 -33 8 0 14 6 13 13 -2 6 4 12 12 12 8
0 16 -10 18 -22 3 -17 -2 -22 -25 -25 -22 -2 -28 -8 -28 -28 0 -23 4 -25 49
-27 36 -1 46 1 37 10 -6 6 -11 30 -11 53 0 49 -23 65 -67 47z m47 -78 c0 -16
-27 -32 -37 -22 -3 4 -3 13 0 22 8 20 37 20 37 0z"/>
<path d="M3530 12720 c-10 -6 -11 -10 -2 -10 8 0 12 -16 12 -44 0 -26 -5 -46
-12 -49 -7 -3 3 -5 22 -5 19 0 29 2 23 5 -8 3 -13 25 -13 59 0 55 -4 61 -30
44z"/>
<path d="M3605 12706 c-18 -27 -14 -74 8 -88 16 -10 55 -10 61 0 2 4 -8 8 -22
7 -25 0 -27 3 -27 45 0 35 4 45 18 48 10 2 17 -3 17 -12 0 -9 5 -16 11 -16 6
0 9 8 7 18 -5 29 -54 28 -73 -2z"/>
<path d="M3723 12724 c-25 -11 -14 -51 17 -64 33 -14 38 -27 14 -37 -11 -4
-22 1 -30 12 -13 18 -14 18 -14 -3 0 -17 6 -22 28 -22 55 0 69 41 22 65 -31
16 -41 45 -15 45 7 0 19 -8 25 -17 10 -16 10 -16 8 2 -3 20 -31 29 -55 19z"/>
<path d="M1518 11808 c16 -16 16 -145 0 -151 -7 -3 5 -5 27 -5 22 0 34 2 28 5
-16 6 -17 73 -2 73 6 0 18 -18 26 -40 11 -28 22 -40 36 -40 18 0 19 2 6 18
-33 40 -39 60 -24 72 8 7 15 23 15 36 0 28 -31 44 -88 44 -28 0 -33 -3 -24
-12z m85 -20 c8 -12 7 -21 -2 -32 -23 -28 -41 -19 -41 20 0 28 4 35 16 32 9
-2 22 -10 27 -20z"/>
<path d="M1918 11744 c3 -57 1 -79 -9 -85 -9 -6 -2 -8 21 -8 19 0 29 3 23 6
-9 3 -13 30 -13 84 0 57 -4 79 -13 79 -9 0 -11 -19 -9 -76z"/>
<path d="M2043 11806 c13 -10 17 -28 17 -74 0 -48 -4 -63 -17 -71 -14 -8 -10
-10 22 -10 22 0 34 3 28 6 -7 2 -13 17 -13 32 0 23 6 30 33 37 25 8 33 16 35
39 5 38 -19 55 -77 55 -40 -1 -44 -2 -28 -14z m71 -9 c23 -17 17 -47 -11 -58
-21 -8 -23 -6 -23 31 0 43 6 47 34 27z"/>
<path d="M2610 11800 c0 -5 5 -10 10 -10 6 0 10 5 10 10 0 6 -4 10 -10 10 -5
0 -10 -4 -10 -10z"/>
<path d="M2524 11777 c-10 -12 -10 -49 2 -104 3 -18 11 -23 32 -22 17 1 20 3
10 6 -14 3 -18 15 -18 48 0 26 5 45 12 47 9 3 8 9 -4 21 -20 20 -20 20 -34 4z"/>
<path d="M1687 11752 c-19 -21 -22 -54 -7 -83 12 -21 64 -27 76 -8 4 8 -1 9
-15 4 -24 -7 -51 9 -51 31 0 10 13 14 40 14 44 0 52 16 24 44 -21 21 -47 20
-67 -2z m51 -15 c3 -12 -4 -17 -22 -17 -28 0 -33 9 -14 28 15 15 32 10 36 -11z"/>
<path d="M1802 11758 c-17 -17 -15 -28 4 -28 8 0 12 5 9 10 -3 6 1 13 10 17
18 6 37 -14 32 -32 -2 -5 -17 -12 -33 -15 -23 -4 -29 -10 -29 -30 0 -23 4 -25
45 -27 l45 -1 -4 46 c-2 26 -8 53 -13 60 -13 15 -50 16 -66 0z m56 -75 c-4
-22 -48 -31 -48 -10 0 19 10 27 32 27 13 0 18 -6 16 -17z"/>
<path d="M2189 11763 c0 -5 0 -28 1 -52 1 -27 -3 -47 -12 -52 -8 -6 -2 -9 21
-9 29 0 32 2 21 15 -7 9 -10 29 -8 48 3 17 3 38 1 45 -5 13 -22 17 -24 5z"/>
<path d="M2227 11764 c-6 -6 16 -34 27 -34 3 0 6 9 6 20 0 19 -20 27 -33 14z"/>
<path d="M2292 11758 c-17 -17 -15 -28 4 -28 8 0 12 5 9 10 -3 6 1 13 10 17
18 6 37 -14 32 -32 -2 -5 -17 -12 -33 -15 -23 -4 -29 -10 -29 -30 0 -23 4 -25
45 -27 l45 -1 -4 46 c-2 26 -8 53 -13 60 -13 15 -50 16 -66 0z m56 -75 c-4
-22 -48 -31 -48 -10 0 19 10 27 32 27 13 0 18 -6 16 -17z"/>
<path d="M2417 11752 c-19 -21 -22 -54 -7 -83 12 -21 64 -27 75 -9 4 7 -2 9
-19 4 -34 -8 -56 32 -38 71 13 27 42 34 42 10 0 -8 5 -15 10 -15 16 0 11 27
-6 34 -26 10 -40 7 -57 -12z"/>
<path d="M2600 11760 c-10 -6 -11 -10 -2 -10 8 0 12 -16 12 -44 0 -26 -5 -46
-12 -49 -7 -3 3 -5 22 -5 19 0 29 2 23 5 -8 3 -13 25 -13 59 0 55 -4 61 -30
44z"/>
<path d="M2675 11746 c-18 -27 -14 -74 8 -88 16 -10 55 -10 61 0 2 4 -8 8 -22
7 -25 0 -27 3 -27 45 0 35 4 45 18 48 10 2 17 -3 17 -12 0 -9 5 -16 11 -16 6
0 9 8 7 18 -5 29 -54 28 -73 -2z"/>
<path d="M2796 11754 c-19 -18 -21 -75 -4 -92 15 -15 64 -16 73 -2 4 7 -3 8
-20 4 -18 -4 -30 -2 -36 7 -17 27 -9 39 26 39 27 0 35 4 35 18 0 39 -45 55
-74 26z m52 -17 c3 -12 -4 -17 -22 -17 -28 0 -33 9 -14 28 15 15 32 10 36 -11z"/>
<path d="M1518 11328 c16 -16 16 -145 0 -151 -7 -3 5 -6 26 -6 35 -1 38 1 22
12 -12 9 -17 23 -14 42 l3 30 30 -42 c17 -23 38 -42 48 -43 15 0 12 8 -17 42
-20 23 -36 45 -36 48 0 4 16 23 35 43 l36 37 -30 0 c-22 0 -29 -4 -25 -14 3
-7 -6 -26 -20 -42 l-25 -29 -1 31 c0 16 5 35 12 42 9 9 4 12 -22 12 -26 0 -31
-3 -22 -12z"/>
<path d="M2508 11328 c7 -7 12 -39 12 -75 0 -48 -4 -64 -17 -72 -14 -8 -5 -10
38 -11 48 0 57 3 62 20 6 23 -8 27 -17 5 -3 -8 -15 -15 -26 -15 -18 0 -20 6
-20 68 0 40 5 73 12 80 9 9 4 12 -22 12 -26 0 -31 -3 -22 -12z"/>
<path d="M3198 11328 c19 -19 14 -38 -11 -38 -32 0 -57 -30 -57 -67 0 -39 16
-52 65 -51 l40 0 -3 84 c-3 78 -5 84 -25 84 -16 0 -18 -3 -9 -12z m10 -80 c4
-33 -13 -68 -33 -68 -20 0 -30 46 -16 76 15 33 45 28 49 -8z"/>
<path d="M3328 11328 c16 -16 16 -145 0 -151 -7 -3 5 -6 27 -6 32 0 36 2 23
10 -14 8 -18 24 -18 72 0 36 5 68 12 75 9 9 4 12 -22 12 -26 0 -31 -3 -22 -12z"/>
<path d="M2840 11295 c0 -8 5 -15 10 -15 6 0 10 7 10 15 0 8 -4 15 -10 15 -5
0 -10 -7 -10 -15z"/>
<path d="M2960 11296 c0 -8 -8 -12 -23 -9 -42 8 -73 -41 -43 -66 12 -10 12
-16 -2 -40 -23 -41 -11 -61 38 -61 28 0 43 5 47 16 8 22 -9 48 -36 52 -27 4
-28 22 -1 22 22 0 25 5 35 63 4 23 2 37 -5 37 -5 0 -10 -6 -10 -14z m-12 -49
c3 -21 -1 -27 -17 -27 -22 0 -30 16 -23 43 7 27 37 16 40 -16z m10 -99 c3 -13
-3 -18 -22 -18 -27 0 -41 14 -31 31 10 16 49 6 53 -13z"/>
<path d="M1684 11265 c-17 -27 -12 -73 9 -87 16 -10 55 -10 61 0 2 4 -8 8 -22
7 -21 0 -28 5 -30 23 -3 19 1 22 32 22 28 0 36 4 36 18 0 45 -60 57 -86 17z
m56 11 c0 -2 3 -11 6 -20 5 -12 0 -16 -20 -16 -24 0 -35 18 -19 33 7 8 33 10
33 3z"/>
<path d="M1804 11265 c-17 -27 -12 -73 9 -87 16 -10 55 -10 61 0 2 4 -8 8 -22
7 -21 0 -28 5 -30 23 -3 19 1 22 32 22 28 0 36 4 36 18 0 45 -60 57 -86 17z
m56 11 c0 -2 3 -11 6 -20 5 -12 0 -16 -20 -16 -24 0 -35 18 -19 33 7 8 33 10
33 3z"/>
<path d="M1918 11279 c-7 -5 -7 -9 1 -13 16 -10 14 -133 -1 -139 -7 -3 -1 -6
13 -6 23 -1 26 2 22 23 -4 21 -1 25 23 28 40 4 60 47 42 86 -11 22 -20 27 -51
27 -21 0 -43 -2 -49 -6z m77 -49 c0 -39 -3 -45 -22 -48 -21 -3 -23 1 -23 41 0
48 6 59 30 55 11 -2 15 -16 15 -48z"/>
<path d="M2119 11286 c0 -1 -1 -27 -2 -59 -2 -51 0 -57 18 -57 17 0 20 7 20
52 0 40 4 53 15 53 11 0 15 -13 15 -53 0 -49 2 -52 25 -52 19 0 21 3 12 12
-28 28 -3 112 28 93 14 -9 13 -92 -2 -98 -7 -3 3 -5 22 -5 19 0 29 2 23 5 -8
3 -13 23 -13 48 0 24 -6 47 -12 52 -9 6 -143 13 -149 9z"/>
<path d="M2336 11274 c-19 -18 -21 -75 -4 -92 15 -15 64 -16 73 -2 4 7 -3 8
-20 4 -18 -4 -30 -2 -36 7 -17 27 -9 39 26 39 27 0 35 4 35 18 0 39 -45 55
-74 26z m52 -17 c3 -12 -4 -17 -22 -17 -28 0 -33 9 -14 28 15 15 32 10 36 -11z"/>
<path d="M2648 11279 c-12 -7 -18 -22 -18 -47 0 -45 14 -62 50 -62 35 0 50 17
50 56 0 53 -39 78 -82 53z m50 -11 c14 -14 16 -57 3 -76 -5 -8 -17 -12 -27
-10 -23 4 -32 62 -13 84 14 17 21 18 37 2z"/>
<path d="M2772 11278 c-29 -29 2 -78 43 -70 29 5 44 44 25 67 -15 18 -51 20
-68 3z m53 -28 c0 -16 -6 -26 -18 -28 -19 -4 -32 20 -23 44 9 25 41 13 41 -16z"/>
<path d="M3026 11274 c-19 -18 -21 -75 -4 -92 15 -15 64 -16 73 -2 4 7 -3 8
-20 4 -18 -4 -30 -2 -36 7 -17 27 -9 39 26 39 27 0 35 4 35 18 0 39 -45 55
-74 26z m52 -17 c3 -12 -4 -17 -22 -17 -28 0 -33 9 -14 28 15 15 32 10 36 -11z"/>
<path d="M3412 11280 c-4 -3 -7 -29 -7 -58 0 -45 3 -52 20 -52 18 0 20 5 16
46 -3 49 12 72 36 52 16 -13 17 -70 1 -86 -9 -9 -7 -12 13 -12 23 0 24 3 20
48 -2 26 -8 53 -13 59 -10 12 -72 14 -86 3z"/>
<path d="M2765 11169 c-9 -40 3 -51 51 -47 31 2 40 7 42 25 3 23 -13 35 -60
47 -23 5 -27 3 -33 -25z m70 -19 c0 -9 -11 -16 -27 -18 -27 -3 -38 14 -21 32
12 12 48 2 48 -14z"/>
<path d="M1526 10358 c-19 -27 -7 -52 35 -73 22 -12 29 -22 27 -38 -4 -30 -47
-37 -55 -8 -7 26 -23 28 -23 2 0 -36 70 -43 94 -9 19 27 7 52 -34 73 -32 16
-40 49 -15 59 8 3 21 -1 29 -9 18 -19 26 -19 26 -1 0 31 -63 35 -84 4z"/>
<path d="M2649 10361 c-20 -16 -22 -23 -14 -47 8 -23 17 -30 43 -32 17 -2 32
-7 32 -11 0 -12 -23 -38 -45 -49 -17 -10 -17 -11 -3 -12 58 -1 101 107 59 149
-26 26 -42 26 -72 2z m65 -28 c5 -17 3 -29 -6 -35 -24 -15 -43 -4 -46 30 -3
28 0 32 21 32 19 0 27 -7 31 -27z"/>
<path d="M2810 10367 c-20 -8 -22 -11 -7 -14 14 -4 17 -16 17 -68 0 -52 -3
-64 -17 -68 -10 -3 2 -5 26 -6 38 -1 42 1 28 12 -12 9 -17 31 -19 83 l-3 71
-25 -10z"/>
<path d="M3013 10373 c-15 -6 -17 -39 -3 -48 6 -3 10 3 10 15 0 16 5 21 23 18
35 -5 32 -39 -8 -90 -19 -26 -35 -49 -35 -52 0 -3 23 -6 50 -6 28 0 50 5 50
10 0 6 -16 10 -36 10 l-36 0 31 35 c36 42 42 89 12 105 -21 11 -38 12 -58 3z"/>
<path d="M3145 10366 c-11 -8 -16 -19 -12 -30 8 -19 27 -12 27 10 0 18 39 18
46 0 7 -18 -17 -65 -50 -95 -14 -14 -26 -28 -26 -33 0 -4 25 -8 55 -8 30 0 55
5 55 10 0 6 -17 10 -37 10 l-36 0 20 23 c44 48 53 85 27 111 -19 20 -44 20
-69 2z"/>
<path d="M3375 10366 c-13 -9 -16 -18 -10 -32 8 -18 9 -17 12 4 6 30 53 32 53
2 0 -27 -22 -70 -49 -94 -32 -29 -26 -36 29 -36 28 0 50 5 50 10 0 6 -16 10
-36 10 l-36 0 31 35 c59 67 23 150 -44 101z"/>
<path d="M3555 10371 c-52 -22 -79 -105 -46 -145 16 -19 62 -21 79 -4 32 32
-1 94 -44 84 -33 -9 -30 10 7 45 17 16 30 29 28 28 -2 0 -13 -4 -24 -8z m23
-107 c4 -25 -22 -49 -43 -40 -9 3 -15 18 -15 36 0 28 3 31 28 28 18 -2 28 -9
30 -24z"/>
<path d="M3637 10373 c-3 -5 -1 -17 4 -28 6 -17 8 -17 8 -2 1 13 10 17 36 17
19 0 35 -2 35 -5 0 -3 -14 -33 -31 -66 -16 -33 -28 -66 -26 -72 5 -12 77 132
77 152 0 12 -96 15 -103 4z"/>
<path d="M3773 10364 c-3 -8 -1 -20 6 -27 8 -8 11 -7 11 6 0 13 9 17 35 17
l34 0 -34 -75 c-18 -41 -30 -75 -25 -75 9 0 80 144 80 161 0 5 -23 9 -50 9
-37 0 -52 -4 -57 -16z"/>
<path d="M3925 10366 c-13 -9 -16 -18 -10 -32 8 -18 9 -17 12 4 6 30 53 32 53
2 0 -27 -22 -70 -49 -94 -32 -29 -26 -36 29 -36 28 0 50 5 50 10 0 6 -16 10
-36 10 l-36 0 31 35 c59 67 23 150 -44 101z"/>
<path d="M4060 10334 c0 -41 2 -45 20 -39 27 9 50 -11 50 -42 0 -34 -29 -41
-50 -13 -12 16 -19 19 -24 11 -19 -31 54 -57 82 -29 15 15 15 61 0 76 -7 7
-22 12 -35 12 -18 0 -23 6 -23 25 0 21 5 25 30 25 17 0 30 5 30 10 0 6 -18 10
-40 10 l-40 0 0 -46z"/>
<path d="M4206 10364 c-19 -19 -20 -36 -4 -52 9 -9 9 -15 0 -24 -17 -17 -15
-65 4 -72 25 -10 59 -7 72 6 14 14 16 54 2 63 -5 3 -7 19 -3 35 10 52 -36 80
-71 44z m54 -29 c0 -28 -21 -33 -40 -10 -15 18 -5 35 21 35 14 0 19 -7 19 -25z
m-6 -58 c26 -19 17 -52 -14 -52 -25 0 -37 22 -26 51 7 17 17 18 40 1z"/>
<path d="M4385 10371 c-52 -22 -79 -105 -46 -145 16 -19 62 -21 79 -4 32 32
-1 94 -44 84 -33 -9 -30 10 7 45 17 16 30 29 28 28 -2 0 -13 -4 -24 -8z m23
-107 c4 -25 -22 -49 -43 -40 -9 3 -15 18 -15 36 0 28 3 31 28 28 18 -2 28 -9
30 -24z"/>
<path d="M4720 10360 c-24 -24 -24 -29 -4 -58 8 -12 26 -22 40 -22 32 0 31
-23 -3 -49 -16 -11 -22 -21 -15 -21 8 0 27 13 43 29 22 23 29 39 29 69 0 64
-49 93 -90 52z m66 -26 c7 -28 -9 -46 -36 -41 -16 2 -25 30 -16 53 9 25 45 17
52 -12z"/>
<path d="M4880 10367 c-20 -8 -22 -11 -7 -14 14 -4 17 -16 17 -68 0 -52 -3
-64 -17 -68 -10 -3 5 -5 32 -5 28 0 42 2 33 5 -15 4 -18 16 -18 78 0 41 -3 76
-7 78 -5 3 -19 0 -33 -6z"/>
<path d="M5058 10369 c-21 -12 -24 -62 -5 -77 6 -6 26 -12 42 -14 l30 -3 -32
-32 c-17 -18 -26 -33 -19 -33 7 0 25 12 40 26 20 21 26 37 26 70 0 63 -36 90
-82 63z m60 -40 c4 -30 -22 -46 -44 -28 -15 12 -19 41 -7 53 16 16 48 1 51
-25z"/>
<path d="M5196 10358 c-11 -16 -12 -26 -5 -41 8 -13 8 -22 0 -30 -15 -15 -14
-50 1 -65 20 -20 65 -14 82 10 14 20 14 24 1 45 -12 17 -13 28 -5 42 13 25 13
27 -6 45 -22 22 -50 20 -68 -6z m58 -7 c10 -16 -6 -42 -23 -39 -9 2 -17 13
-19 26 -3 16 2 22 17 22 11 0 22 -4 25 -9z m-4 -76 c17 -20 8 -50 -14 -50 -23
0 -41 27 -33 49 8 20 31 21 47 1z"/>
<path d="M5375 10371 c-52 -22 -79 -105 -46 -145 16 -19 62 -21 79 -4 32 32
-1 94 -44 84 -33 -9 -30 10 7 45 17 16 30 29 28 28 -2 0 -13 -4 -24 -8z m23
-107 c4 -25 -22 -49 -43 -40 -9 3 -15 18 -15 36 0 28 3 31 28 28 18 -2 28 -9
30 -24z"/>
<path d="M5460 10353 c1 -24 2 -25 11 -10 9 15 69 26 69 12 0 -3 -14 -35 -30
-72 -17 -36 -28 -68 -25 -71 7 -7 8 -6 43 72 43 92 42 96 -18 96 -48 0 -50 -1
-50 -27z"/>
<path d="M5610 10360 c-27 -27 -28 -110 -2 -133 45 -41 92 -7 92 66 0 49 -24
87 -55 87 -8 0 -24 -9 -35 -20z m66 -25 c18 -70 -20 -144 -52 -101 -19 26 -18
100 1 120 20 19 43 10 51 -19z"/>
<path d="M5750 10360 c-27 -27 -28 -110 -2 -133 45 -41 92 -7 92 66 0 49 -24
87 -55 87 -8 0 -24 -9 -35 -20z m66 -25 c18 -70 -20 -144 -52 -101 -19 26 -18
100 1 120 20 19 43 10 51 -19z"/>
<path d="M5892 10363 c-20 -17 -27 -49 -24 -100 4 -51 68 -71 96 -31 23 33 21
103 -4 128 -25 25 -42 25 -68 3z m62 -25 c18 -68 -6 -133 -41 -112 -18 11 -31
90 -19 120 9 23 53 17 60 -8z"/>
<path d="M6020 10334 c0 -41 2 -45 20 -39 27 9 50 -11 50 -42 0 -34 -29 -41
-50 -13 -12 16 -19 19 -24 11 -11 -18 13 -41 43 -41 34 0 51 17 51 50 0 32
-17 50 -47 50 -18 0 -23 6 -23 25 0 21 5 25 30 25 17 0 30 5 30 10 0 6 -18 10
-40 10 l-40 0 0 -46z"/>
<path d="M6166 10364 c-19 -19 -20 -36 -4 -52 9 -9 9 -15 0 -24 -17 -17 -15
-65 4 -72 25 -10 59 -7 72 6 14 14 16 54 2 63 -5 3 -7 19 -3 35 10 52 -36 80
-71 44z m54 -29 c0 -28 -21 -33 -40 -10 -15 18 -5 35 21 35 14 0 19 -7 19 -25z
m-6 -58 c26 -19 17 -52 -14 -52 -25 0 -37 22 -26 51 7 17 17 18 40 1z"/>
<path d="M6345 10371 c-52 -22 -79 -105 -46 -145 16 -19 62 -21 79 -4 32 32
-1 94 -44 84 -33 -9 -30 10 7 45 17 16 30 29 28 28 -2 0 -13 -4 -24 -8z m23
-107 c4 -25 -22 -49 -43 -40 -9 3 -15 18 -15 36 0 28 3 31 28 28 18 -2 28 -9
30 -24z"/>
<path d="M2296 10331 c-11 -12 -14 -21 -8 -21 6 0 12 -21 14 -47 3 -43 6 -48
28 -50 14 -1 18 0 8 3 -24 7 -26 94 -3 94 8 0 15 5 15 10 0 6 -6 10 -14 10 -8
0 -16 5 -18 11 -2 6 -12 1 -22 -10z"/>
<path d="M1640 10320 c-9 -6 -10 -10 -3 -10 7 0 13 -19 15 -47 l3 -48 55 -2
c30 0 49 1 43 4 -8 3 -13 25 -13 59 0 55 -4 61 -30 44 -10 -6 -11 -10 -2 -10
14 0 16 -58 3 -79 -5 -8 -16 -11 -25 -8 -12 5 -16 20 -16 57 0 51 -4 57 -30
40z"/>
<path d="M1778 10319 c-7 -5 -7 -9 1 -13 16 -10 14 -133 -1 -139 -7 -3 -1 -6
13 -6 23 -1 26 2 22 23 -4 21 -1 25 23 28 40 4 60 47 42 86 -11 22 -20 27 -51
27 -21 0 -43 -2 -49 -6z m77 -49 c0 -39 -3 -45 -22 -48 -21 -3 -23 1 -23 41 0
48 6 59 30 55 11 -2 15 -16 15 -48z"/>
<path d="M1918 10319 c-7 -5 -7 -9 1 -13 16 -10 14 -133 -1 -139 -7 -3 -1 -6
13 -6 23 -1 26 2 22 23 -4 21 -1 25 23 28 40 4 60 47 42 86 -11 22 -20 27 -51
27 -21 0 -43 -2 -49 -6z m77 -49 c0 -39 -3 -45 -22 -48 -21 -3 -23 1 -23 41 0
48 6 59 30 55 11 -2 15 -16 15 -48z"/>
<path d="M2066 10308 c-9 -12 -16 -29 -16 -38 0 -27 30 -60 55 -60 32 0 55 25
55 59 0 55 -65 81 -94 39z m66 -13 c15 -32 -4 -78 -30 -73 -17 3 -29 56 -18
84 9 22 35 16 48 -11z"/>
<path d="M2189 10319 c-10 -6 -11 -9 -1 -9 8 0 12 -16 12 -44 0 -26 -5 -46
-12 -49 -7 -3 3 -5 22 -5 19 0 29 2 23 5 -16 6 -17 79 -2 89 6 3 15 1 19 -6 6
-9 9 -9 15 0 4 6 4 14 0 18 -10 10 -61 11 -76 1z"/>
<path d="M2540 10310 c0 -13 -7 -20 -20 -20 -11 0 -20 -4 -20 -10 0 -5 9 -10
20 -10 13 0 20 -7 20 -20 0 -11 5 -20 10 -20 6 0 10 9 10 20 0 13 7 20 20 20
11 0 20 5 20 10 0 6 -9 10 -20 10 -13 0 -20 7 -20 20 0 11 -4 20 -10 20 -5 0
-10 -9 -10 -20z"/>
<path d="M4610 10310 c0 -13 -7 -20 -20 -20 -11 0 -20 -4 -20 -10 0 -5 9 -10
20 -10 13 0 20 -7 20 -20 0 -11 5 -20 10 -20 6 0 10 9 10 20 0 13 7 20 20 20
11 0 20 5 20 10 0 6 -9 10 -20 10 -13 0 -20 7 -20 20 0 11 -4 20 -10 20 -5 0
-10 -9 -10 -20z"/>
<path d="M2380 10305 c0 -9 5 -15 11 -13 6 2 11 8 11 13 0 5 -5 11 -11 13 -6
2 -11 -4 -11 -13z"/>
<path d="M2923 10273 c9 -2 23 -2 30 0 6 3 -1 5 -18 5 -16 0 -22 -2 -12 -5z"/>
<path d="M3283 10273 c9 -2 23 -2 30 0 6 3 -1 5 -18 5 -16 0 -22 -2 -12 -5z"/>
<path d="M2385 10229 c-10 -15 3 -25 16 -12 7 7 7 13 1 17 -6 3 -14 1 -17 -5z"/>
<path d="M4463 10203 c0 -25 0 -25 13 -8 13 18 11 35 -5 35 -5 0 -8 -12 -8
-27z"/>
<path d="M1526 9878 c-19 -27 -7 -52 35 -73 22 -12 29 -22 27 -38 -4 -30 -47
-37 -55 -8 -7 26 -23 28 -23 2 0 -36 70 -43 94 -9 19 27 7 52 -34 73 -32 16
-40 49 -15 59 8 3 21 -1 29 -9 18 -19 26 -19 26 -1 0 31 -63 35 -84 4z"/>
<path d="M1768 9824 c3 -57 1 -79 -9 -85 -9 -6 -2 -8 21 -8 19 0 29 3 23 6 -9
3 -13 30 -13 84 0 57 -4 79 -13 79 -9 0 -11 -19 -9 -76z"/>
<path d="M2338 9889 c-21 -12 -24 -62 -5 -77 6 -6 26 -12 42 -14 l30 -3 -32
-32 c-17 -18 -26 -33 -19 -33 7 0 25 12 40 26 20 21 26 37 26 70 0 63 -36 90
-82 63z m60 -40 c4 -30 -22 -46 -44 -28 -15 12 -19 41 -7 53 16 16 48 1 51
-25z"/>
<path d="M2498 9893 c-22 -5 -24 -23 -3 -23 12 0 15 -13 15 -60 0 -54 -3 -62
-22 -70 -18 -7 -12 -9 27 -8 28 0 42 2 33 5 -15 4 -18 17 -18 84 0 43 -3 78
-7 78 -5 -1 -16 -3 -25 -6z"/>
<path d="M2667 9882 c-34 -38 -15 -82 35 -82 15 0 28 -4 28 -8 0 -13 -23 -38
-45 -50 -11 -6 -14 -12 -7 -12 66 -1 108 130 52 160 -27 15 -45 12 -63 -8z
m61 -35 c4 -33 -22 -47 -45 -24 -22 21 -8 59 20 55 16 -2 23 -11 25 -31z"/>
<path d="M2816 9887 c-28 -20 -17 -59 22 -76 23 -11 32 -21 32 -38 0 -28 -24
-40 -46 -22 -10 8 -13 21 -9 36 3 13 1 23 -5 23 -16 0 -23 -49 -10 -65 16 -20
64 -19 84 1 20 19 20 34 1 61 -10 14 -12 24 -5 28 17 10 11 44 -9 55 -25 13
-33 13 -55 -3z m51 -23 c3 -8 1 -20 -4 -25 -14 -14 -43 0 -43 22 0 24 38 26
47 3z"/>
<path d="M2945 9886 c-13 -9 -16 -18 -10 -32 8 -18 9 -17 12 4 6 30 53 32 53
2 0 -27 -22 -70 -49 -94 -32 -29 -26 -36 29 -36 28 0 50 5 50 10 0 6 -16 10
-36 10 l-36 0 31 35 c59 67 23 150 -44 101z"/>
<path d="M3086 9887 c-26 -19 -33 -99 -12 -132 29 -44 80 -31 96 24 12 43 2
88 -24 106 -25 18 -37 19 -60 2z m59 -71 c0 -45 -4 -61 -17 -70 -24 -15 -38 2
-45 51 -7 51 11 85 40 81 20 -3 22 -9 22 -62z"/>
<path d="M3226 9884 c-19 -19 -20 -36 -4 -52 9 -9 9 -15 0 -24 -17 -17 -15
-65 4 -72 25 -10 59 -7 72 6 14 14 16 54 2 63 -5 3 -7 19 -3 35 10 52 -36 80
-71 44z m54 -29 c0 -28 -21 -33 -40 -10 -15 18 -5 35 21 35 14 0 19 -7 19 -25z
m-6 -58 c26 -19 17 -52 -14 -52 -25 0 -37 22 -26 51 7 17 17 18 40 1z"/>
<path d="M3354 9886 c-3 -8 -4 -27 -2 -43 3 -24 7 -28 30 -25 34 3 54 -28 38
-58 -14 -27 -39 -25 -49 3 -8 19 -10 20 -16 5 -4 -9 -4 -22 0 -28 10 -15 62
-12 79 6 33 32 8 84 -40 84 -19 0 -24 5 -24 25 0 22 4 25 35 25 19 0 35 5 35
10 0 16 -80 12 -86 -4z"/>
<path d="M3498 9889 c-21 -12 -24 -62 -5 -77 6 -6 26 -12 42 -14 l30 -3 -32
-32 c-17 -18 -26 -33 -19 -33 7 0 25 12 40 26 20 21 26 37 26 70 0 63 -36 90
-82 63z m60 -40 c4 -30 -22 -46 -44 -28 -15 12 -19 41 -7 53 16 16 48 1 51
-25z"/>
<path d="M3630 9854 c0 -41 2 -45 20 -39 27 9 50 -11 50 -42 0 -34 -29 -41
-50 -13 -12 16 -19 19 -24 11 -19 -31 54 -57 82 -29 15 15 15 61 0 76 -7 7
-22 12 -35 12 -18 0 -23 6 -23 25 0 21 5 25 30 25 17 0 30 5 30 10 0 6 -18 10
-40 10 l-40 0 0 -46z"/>
<path d="M3798 9893 c-22 -5 -24 -23 -3 -23 12 0 15 -13 15 -60 0 -54 -3 -62
-22 -70 -18 -7 -12 -9 27 -8 28 0 42 2 33 5 -15 4 -18 17 -18 84 0 43 -3 78
-7 78 -5 -1 -16 -3 -25 -6z"/>
<path d="M3916 9887 c-26 -19 -33 -99 -12 -132 29 -44 80 -31 96 24 12 43 2
88 -24 106 -25 18 -37 19 -60 2z m59 -71 c0 -45 -4 -61 -17 -70 -24 -15 -38 2
-45 51 -7 51 11 85 40 81 20 -3 22 -9 22 -62z"/>
<path d="M1653 9843 c-18 -7 -16 -33 2 -33 8 0 14 6 13 13 -2 6 4 12 12 12 8
0 16 -10 18 -22 3 -17 -2 -22 -25 -25 -22 -2 -28 -8 -28 -28 0 -23 4 -25 49
-27 36 -1 46 1 37 10 -6 6 -11 30 -11 53 0 49 -23 65 -67 47z m47 -78 c0 -16
-27 -32 -37 -22 -3 4 -3 13 0 22 8 20 37 20 37 0z"/>
<path d="M1846 9834 c-19 -18 -21 -75 -4 -92 15 -15 64 -16 73 -2 4 7 -3 8
-20 4 -18 -4 -30 -2 -36 7 -17 27 -9 39 26 39 27 0 35 4 35 18 0 39 -45 55
-74 26z m52 -17 c3 -12 -4 -17 -22 -17 -28 0 -33 9 -14 28 15 15 32 10 36 -11z"/>
<path d="M1962 9841 c-21 -13 -10 -44 21 -59 31 -15 35 -30 11 -39 -11 -4 -22
1 -30 12 -13 18 -14 18 -14 -3 0 -18 6 -22 29 -22 55 0 67 51 16 70 -14 5 -25
16 -25 25 0 20 29 19 37 -1 4 -12 8 -13 14 -3 4 7 5 17 3 21 -7 11 -45 10 -62
-1z"/>
<path d="M2231 9833 c-1 -18 -7 -23 -27 -23 -14 0 -23 -4 -19 -10 3 -5 15 -10
26 -10 13 0 19 -7 20 -22 l2 -23 4 23 c3 14 12 22 24 22 10 0 19 5 19 10 0 6
-9 10 -19 10 -12 0 -21 8 -24 23 l-4 22 -2 -22z"/>
<path d="M2062 9829 c2 -6 8 -10 13 -10 5 0 11 4 13 10 2 6 -4 11 -13 11 -9 0
-15 -5 -13 -11z"/>
<path d="M2066 9753 c-11 -11 -6 -23 9 -23 8 0 15 4 15 9 0 13 -16 22 -24 14z"/>
<path d="M1510 9412 c0 -4 4 -12 8 -17 5 -6 17 -38 27 -73 10 -35 22 -65 26
-68 4 -2 16 22 27 53 l19 58 18 -57 c10 -32 22 -58 25 -58 4 0 15 30 25 68 10
37 22 71 26 77 16 16 10 25 -17 25 -21 0 -24 -3 -16 -13 8 -9 7 -27 -2 -62
-13 -47 -14 -49 -23 -25 -6 14 -14 40 -18 58 -3 17 -10 32 -15 32 -5 0 -16
-26 -26 -57 l-16 -58 -15 40 c-8 22 -12 50 -10 63 3 18 0 22 -19 22 -13 0 -24
-4 -24 -8z"/>
<path d="M1868 9408 c7 -7 12 -41 12 -84 l0 -71 37 1 c31 1 40 6 51 29 19 39
-3 82 -41 82 -23 -1 -27 3 -27 27 0 22 -5 28 -22 28 -17 0 -19 -3 -10 -12z
m77 -98 c0 -38 -3 -45 -20 -45 -22 0 -31 30 -20 72 4 16 12 23 23 21 13 -3 17
-14 17 -48z"/>
<path d="M1768 9359 c-21 -12 -25 -78 -6 -97 13 -13 54 -16 62 -4 2 4 -8 8
-22 7 -21 0 -28 5 -30 23 -3 19 1 22 32 22 28 0 36 4 36 18 0 37 -36 52 -72
31z m50 -22 c3 -12 -3 -17 -22 -17 -25 0 -35 18 -19 34 12 12 38 2 41 -17z"/>
<path d="M2067 9354 c-8 -8 1 -24 14 -24 5 0 9 7 9 15 0 15 -12 20 -23 9z"/>
<path d="M2066 9272 c-3 -6 -1 -14 5 -17 15 -10 25 3 12 16 -7 7 -13 7 -17 1z"/>
<path d="M1792 5977 c-14 -17 2 -42 22 -34 20 8 20 21 2 36 -10 8 -16 8 -24
-2z"/>
<path d="M2266 5523 c8 -16 24 -54 35 -86 12 -33 25 -55 29 -50 4 4 15 33 25
63 9 30 24 65 31 78 13 20 13 22 -9 22 -19 0 -23 -5 -24 -32 0 -18 -6 -46 -13
-63 l-12 -30 -18 50 c-12 34 -14 54 -7 63 7 9 2 12 -21 12 -31 0 -31 0 -16
-27z"/>
<path d="M3165 5536 c-13 -9 -16 -18 -10 -32 8 -18 9 -17 12 4 6 30 53 32 53
2 0 -27 -22 -70 -49 -94 -32 -29 -26 -36 29 -36 28 0 50 5 50 10 0 6 -16 10
-36 10 l-36 0 31 35 c59 67 23 150 -44 101z"/>
<path d="M3305 5537 c-11 -9 -15 -19 -10 -27 6 -10 10 -9 17 4 5 9 18 16 28
16 28 0 26 -36 -2 -51 l-22 -12 23 -8 c17 -7 22 -15 19 -36 -4 -35 -37 -45
-45 -14 -7 28 -25 27 -21 -1 4 -34 60 -38 82 -7 14 20 14 26 1 45 -9 14 -11
25 -5 29 14 9 13 48 -2 63 -16 16 -40 15 -63 -1z"/>
<path d="M3495 5537 c-11 -9 -15 -19 -10 -27 6 -10 10 -9 17 4 5 9 18 16 28
16 28 0 26 -36 -2 -51 l-22 -12 23 -8 c17 -7 22 -15 19 -36 -4 -35 -37 -45
-45 -14 -7 28 -25 27 -21 -1 4 -34 60 -38 82 -7 14 20 14 26 1 45 -9 14 -11
25 -5 29 14 9 13 48 -2 63 -16 16 -40 15 -63 -1z"/>
<path d="M3624 5536 c-3 -8 -4 -27 -2 -43 3 -24 7 -28 30 -25 34 3 54 -28 38
-58 -14 -27 -39 -25 -49 3 -8 19 -10 20 -16 5 -4 -9 -4 -22 0 -28 10 -15 62
-12 79 6 33 32 8 84 -40 84 -19 0 -24 5 -24 25 0 22 4 25 35 25 19 0 35 5 35
10 0 16 -80 12 -86 -4z"/>
<path d="M3818 5538 c7 -7 12 -39 12 -75 0 -48 -4 -64 -17 -72 -14 -8 -10 -10
22 -10 22 0 34 3 28 6 -7 2 -13 20 -13 40 0 44 19 40 43 -10 12 -27 23 -37 40
-37 18 1 19 2 6 10 -25 14 -45 68 -30 83 17 17 13 55 -8 67 -11 5 -37 10 -57
10 -30 0 -35 -3 -26 -12z m70 -7 c22 -13 11 -56 -15 -59 -20 -3 -23 1 -23 32
0 36 11 44 38 27z"/>
<path d="M4085 5465 c0 -84 0 -85 25 -85 19 0 21 3 12 12 -7 7 -12 42 -12 85
0 52 -4 73 -12 73 -10 0 -13 -24 -13 -85z"/>
<path d="M4688 5538 c20 -20 14 -36 -15 -40 -37 -4 -61 -46 -47 -85 9 -26 14
-28 64 -30 30 0 49 1 43 4 -9 3 -13 30 -13 84 0 75 -1 79 -22 79 -17 0 -19 -3
-10 -12z m10 -77 c6 -39 -7 -71 -28 -71 -25 0 -37 42 -21 76 14 31 45 28 49
-5z"/>
<path d="M2760 5530 c0 -5 5 -10 10 -10 6 0 10 5 10 10 0 6 -4 10 -10 10 -5 0
-10 -4 -10 -10z"/>
<path d="M2438 5489 c-21 -12 -25 -78 -6 -97 13 -13 54 -16 62 -4 2 4 -8 8
-22 7 -21 0 -28 5 -30 23 -3 19 1 22 32 22 28 0 36 4 36 18 0 37 -36 52 -72
31z m50 -22 c3 -12 -3 -17 -22 -17 -25 0 -35 18 -19 34 12 12 38 2 41 -17z"/>
<path d="M2549 5493 c0 -5 0 -28 1 -52 1 -27 -3 -47 -12 -52 -8 -6 -2 -9 21
-9 29 0 32 2 21 15 -7 9 -10 29 -8 48 3 17 3 38 1 45 -5 13 -22 17 -24 5z"/>
<path d="M2587 5494 c-6 -6 16 -34 27 -34 3 0 6 9 6 20 0 19 -20 27 -33 14z"/>
<path d="M2652 5491 c-21 -13 -10 -44 21 -59 31 -15 35 -30 11 -39 -11 -4 -22
1 -30 12 -13 18 -14 18 -14 -3 0 -18 6 -22 29 -22 55 0 67 51 16 70 -14 5 -25
16 -25 25 0 20 29 19 37 -1 4 -12 8 -13 14 -3 4 7 5 17 3 21 -7 11 -45 10 -62
-1z"/>
<path d="M2750 5490 c-10 -6 -11 -10 -2 -10 8 0 12 -16 12 -44 0 -26 -5 -46
-12 -49 -7 -3 3 -5 22 -5 19 0 29 2 23 5 -8 3 -13 25 -13 59 0 55 -4 61 -30
44z"/>
<path d="M2838 5489 c-12 -7 -18 -22 -18 -47 0 -45 14 -62 50 -62 35 0 50 17
50 56 0 53 -39 78 -82 53z m50 -11 c14 -14 16 -57 3 -76 -5 -8 -17 -12 -27
-10 -23 4 -32 62 -13 84 14 17 21 18 37 2z"/>
<path d="M2948 5489 c-10 -7 -10 -9 0 -9 8 0 12 -16 12 -44 0 -26 -5 -46 -12
-49 -7 -3 3 -5 22 -5 19 0 29 2 23 5 -18 7 -16 78 2 93 8 6 19 9 25 5 14 -9
13 -92 -2 -98 -7 -3 3 -5 22 -5 19 0 29 2 23 5 -8 3 -13 24 -13 54 0 27 -3 50
-7 50 -31 6 -84 5 -95 -2z"/>
<path d="M3974 5475 c-17 -27 -12 -73 9 -87 16 -10 55 -10 61 0 2 4 -8 8 -22
7 -21 0 -28 5 -30 23 -3 19 1 22 32 22 28 0 36 4 36 18 0 45 -60 57 -86 17z
m56 11 c0 -2 3 -11 6 -20 5 -12 0 -16 -20 -16 -24 0 -35 18 -19 33 7 8 33 10
33 3z"/>
<path d="M4164 5475 c-17 -27 -12 -73 9 -87 16 -10 55 -10 61 0 2 4 -8 8 -22
7 -21 0 -28 5 -30 23 -3 19 1 22 32 22 28 0 36 4 36 18 0 45 -60 57 -86 17z
m56 11 c0 -2 3 -11 6 -20 5 -12 0 -16 -20 -16 -24 0 -35 18 -19 33 7 8 33 10
33 3z"/>
<path d="M4281 5487 c-6 -8 -8 -17 -4 -20 11 -12 23 -7 23 9 0 9 7 14 18 12
25 -5 22 -42 -5 -46 -27 -4 -47 -27 -40 -46 4 -11 21 -15 59 -14 29 0 47 3 41
5 -8 3 -13 22 -13 47 0 23 -5 47 -12 54 -16 16 -53 15 -67 -1z m59 -72 c0 -9
-7 -18 -16 -22 -18 -7 -39 11 -30 26 11 17 46 13 46 -4z"/>
<path d="M4401 5487 c-15 -19 -5 -42 25 -55 29 -14 32 -42 4 -42 -11 0 -20 7
-20 15 0 8 -5 15 -11 15 -6 0 -9 -8 -7 -17 2 -13 13 -18 38 -18 30 0 35 4 38
26 2 21 -3 29 -27 39 -34 14 -40 27 -16 37 9 3 22 -2 31 -13 14 -18 15 -18 12
1 -4 24 -49 33 -67 12z"/>
<path d="M4514 5475 c-17 -27 -12 -73 9 -87 16 -10 55 -10 61 0 2 4 -8 8 -22
7 -21 0 -28 5 -30 23 -3 19 1 22 32 22 28 0 36 4 36 18 0 45 -60 57 -86 17z
m56 11 c0 -2 3 -11 6 -20 5 -12 0 -16 -20 -16 -24 0 -35 18 -19 33 7 8 33 10
33 3z"/>
<path d="M3420 5395 c0 -8 5 -15 10 -15 6 0 10 7 10 15 0 8 -4 15 -10 15 -5 0
-10 -7 -10 -15z"/>
</g>
</svg>
