<svg fill="#000000" width="800px" height="800px" viewBox="0 0 50 50" xmlns="http://www.w3.org/2000/svg" xmlns:xlink="http://www.w3.org/1999/xlink">
	<path d="M48.406,21.063h-0.031l-4.125-5.5v-0.031L44.219,
	15.5C43.297,14.387,41.914,13,40,13h-8c-0.355,0-0.684,0.074-1,0.188c-0.727,
	0.375-2.004,1.245-2,2.719V25v0.95V27h-2V16c0-0.552-0.448-1-1-1h-4V4c0-0.552-0.448-1-1-1H9C8.448,
	3,8,3.448,8,4v11H4c-0.552,0-1,0.448-1,1v11H1c-0.552,0-1,0.448-1,1v6c0,2.206,1.794,4,4,4h4.09c0.478,
	2.833,2.942,5,5.91,5s5.431-2.167,5.91-5h13.184c0.477,2.836,2.941,5,5.906,5c2.96,0,5.429-2.172,
	5.909-5H45h1h1c1.66,0,3-1.34,3-3v-9.625C50,23.086,48.406,21.063,48.406,21.063z" />
</svg>
